<svg xmlns="http://www.w3.org/2000/svg" viewBox="0 0 640 360"><defs><style>.cls-1{fill:#fff;}</style></defs><g id="レイヤー_3" data-name="レイヤー 3"><rect width="640" height="360"/></g><g id="レイヤー_1" data-name="レイヤー 1"><path class="cls-1" d="M498.44,418.21a1.84,1.84,0,0,0-1.84,1.85v24.36a1.8,1.8,0,0,0-.13.66c0,7.25-3.45,10.78-6.38,12.47a15.62,15.62,0,0,1-15.23-.22,12.35,12.35,0,0,1-6.23-11.25V420.43a1.85,1.85,0,0,0-3.7,0v25.63A16.07,16.07,0,0,0,473,460.51a19.36,19.36,0,0,0,18.94.24,15.7,15.7,0,0,0,4.27-3.6.77.77,0,0,1,.4.18v3.26a1.85,1.85,0,1,0,3.69,0V420.06A1.85,1.85,0,0,0,498.44,418.21Zm-96.53.12a1.85,1.85,0,0,0-1.85,1.85V428a.68.68,0,0,1-.45.15,22.06,22.06,0,1,0-.17,25.26,1,1,0,0,1,.62-.24v7.7a1.85,1.85,0,1,0,3.69,0V420.18A1.84,1.84,0,0,0,401.91,418.33ZM381.45,459a18.37,18.37,0,1,1,18.37-18.37A18.39,18.39,0,0,1,381.45,459Zm72.27-40.42a1.85,1.85,0,0,0-1.85,1.85v8.07a.59.59,0,0,1-.36.11,22.07,22.07,0,1,0-.05,24.1.73.73,0,0,1,.41.12v.37c0,13.47-8.39,19.8-15.58,21.12a17.42,17.42,0,0,1-19.77-11.43,1.85,1.85,0,0,0-3.46,1.32c4.47,11.71,15.22,15.34,23.9,13.75s18.61-9,18.61-24.76V420.43A1.85,1.85,0,0,0,453.72,418.58ZM433,459a18.36,18.36,0,1,1,18.36-18.36A18.39,18.39,0,0,1,433,459Zm104.31-38.73A19.41,19.41,0,0,0,518.4,420a15.73,15.73,0,0,0-4.27,3.61.75.75,0,0,1-.39-.19v-3.26a1.85,1.85,0,0,0-3.7,0v40.54a1.85,1.85,0,0,0,3.7,0V436.36a1.84,1.84,0,0,0,.12-.66c0-7.25,3.45-10.79,6.39-12.48a15.57,15.57,0,0,1,15.22.23,12.31,12.31,0,0,1,6.23,11.25v25.65a1.85,1.85,0,0,0,3.7,0V434.72A16.09,16.09,0,0,0,537.34,420.26Zm36.14-1.94a22.06,22.06,0,1,0,22.06,22.06A22.08,22.08,0,0,0,573.48,418.32Zm0,40.43a18.37,18.37,0,1,1,18.36-18.37A18.39,18.39,0,0,1,573.48,458.75Z" transform="translate(-294.74 -151.98)"/><path class="cls-1" d="M592.08,419.93v40.66a1.85,1.85,0,1,0,3.69,0V419.93a1.85,1.85,0,1,0-3.69,0Z" transform="translate(-294.74 -151.98)"/><path class="cls-1" d="M592.45,426.64l0,3.28-1.77-2.67C591.26,428.26,592.53,428.06,592.45,426.64Z" transform="translate(-294.74 -151.98)"/><path class="cls-1" d="M592.5,454.12l0-3.27-1.79,2.65C591.32,452.49,592.59,452.71,592.5,454.12Z" transform="translate(-294.74 -151.98)"/><path class="cls-1" d="M682.57,405.77a1.84,1.84,0,0,0-1.85,1.84v5.67a1.85,1.85,0,1,0,3.7,0v-5.67A1.84,1.84,0,0,0,682.57,405.77Zm-13.81-.25a1.85,1.85,0,0,0-1.85,1.85v25.26H633.64v-25a1.85,1.85,0,0,0-3.69,0v52.74a1.85,1.85,0,0,0,3.69,0v-24h33.27v24.52a1.85,1.85,0,0,0,3.7,0V407.37A1.85,1.85,0,0,0,668.76,405.52Zm13.81,15.53a1.84,1.84,0,0,0-1.85,1.84v37.7a1.85,1.85,0,1,0,3.7,0v-37.7A1.84,1.84,0,0,0,682.57,421.05Zm13.89-15a1.85,1.85,0,0,0-1.85,1.85v52.49a1.85,1.85,0,0,0,3.7,0V407.86A1.85,1.85,0,0,0,696.46,406Zm14-.12a1.85,1.85,0,0,0-1.85,1.85v52.48a1.85,1.85,0,1,0,3.7,0V407.74A1.85,1.85,0,0,0,710.45,405.89Zm22.94,30.92a9.31,9.31,0,0,1-6.66-2.61,7.26,7.26,0,0,1-2.25-5.16c0-4.29,4-7.77,8.89-7.77,4.63,0,8.52,3.16,8.86,7.2a1.85,1.85,0,1,0,3.68-.31c-.49-5.93-6-10.59-12.54-10.59-6.94,0-12.58,5.15-12.58,11.47a10.91,10.91,0,0,0,3.34,7.79,13,13,0,0,0,9.3,3.68c5.66-.06,10.47,3.78,10.94,8.73a8.66,8.66,0,0,1-2.08,6.43,11.24,11.24,0,0,1-7.78,3.83c-6,.46-11.23-3.43-11.73-8.68a1.85,1.85,0,0,0-3.68.35c.69,7.24,7.73,12.63,15.69,12a15,15,0,0,0,10.33-5.14,12.37,12.37,0,0,0,2.93-9.16C747.4,442,741,436.74,733.39,436.81Zm25.7,16.25a1.85,1.85,0,0,0-2.51.73l-6.65,12.07a1.85,1.85,0,0,0,3.24,1.79l6.65-12.08A1.85,1.85,0,0,0,759.09,453.06Zm32.34-46.68a1.85,1.85,0,0,0-1.85,1.85v52.49a1.85,1.85,0,0,0,3.7,0V408.23A1.85,1.85,0,0,0,791.43,406.38Zm106.11,46.45a1.85,1.85,0,0,0-1.84,1.85v5.67a1.85,1.85,0,0,0,3.69,0v-5.67A1.85,1.85,0,0,0,897.54,452.83ZM868.3,421.88A19.16,19.16,0,0,1,885,433a1.85,1.85,0,1,0,3.37-1.51,22.58,22.58,0,0,0-19.9-13.26c-12.51-.5-23.12,9-23.64,21.17A21.65,21.65,0,0,0,850.59,455a23.07,23.07,0,0,0,37.47-5.28,1.85,1.85,0,1,0-3.32-1.62,19.38,19.38,0,0,1-31.43,4.4,18,18,0,0,1-4.81-13C848.94,429.37,857.82,421.46,868.3,421.88Zm-37.93-1.56a19.39,19.39,0,0,0-18.93-.24,15.76,15.76,0,0,0-4.27,3.61.77.77,0,0,1-.4-.18v-3.27a1.85,1.85,0,0,0-3.69,0v40.54a1.85,1.85,0,1,0,3.69,0V436.41a1.75,1.75,0,0,0,.13-.65c0-7.25,3.45-10.78,6.38-12.47a15.55,15.55,0,0,1,15.22.22,12.33,12.33,0,0,1,6.24,11.25v25.65a1.85,1.85,0,1,0,3.69,0V434.78A16.09,16.09,0,0,0,830.37,420.32Z" transform="translate(-294.74 -151.98)"/><path class="cls-1" d="M357.59,459H333.78V407.86a1.85,1.85,0,1,0-3.7,0v54.83h27.51a1.85,1.85,0,1,0,0-3.7Z" transform="translate(-294.74 -151.98)"/><rect class="cls-1" x="204.31" y="220.39" width="230.91" height="4.05"/><rect class="cls-1" x="204.3" y="213.2" width="230.92" height="3.96"/><rect class="cls-1" x="204.29" y="206.02" width="230.92" height="3.86"/><rect class="cls-1" x="204.29" y="198.84" width="230.92" height="3.77"/><rect class="cls-1" x="204.28" y="191.65" width="230.92" height="3.68"/><rect class="cls-1" x="204.28" y="184.47" width="230.92" height="3.58"/><rect class="cls-1" x="204.27" y="177.29" width="230.92" height="3.49"/><rect class="cls-1" x="204.26" y="170.11" width="230.92" height="3.4"/><rect class="cls-1" x="204.26" y="162.93" width="230.92" height="3.3"/><rect class="cls-1" x="204.25" y="155.74" width="230.92" height="3.21"/><rect class="cls-1" x="204.24" y="148.56" width="230.91" height="3.12"/><rect class="cls-1" x="204.24" y="141.38" width="230.91" height="3.02"/><rect class="cls-1" x="204.23" y="134.2" width="230.91" height="2.93"/><rect class="cls-1" x="204.22" y="127.01" width="230.92" height="2.83"/><rect class="cls-1" x="204.22" y="119.83" width="230.91" height="2.74"/><rect class="cls-1" x="204.21" y="112.65" width="230.91" height="2.65"/><rect class="cls-1" x="204.21" y="105.47" width="230.91" height="2.55"/><rect class="cls-1" x="204.2" y="98.28" width="230.92" height="2.46"/><rect class="cls-1" x="204.19" y="91.1" width="230.92" height="2.37"/><rect class="cls-1" x="204.19" y="83.92" width="230.92" height="2.27"/><rect class="cls-1" x="204.18" y="76.74" width="230.91" height="2.18"/><rect class="cls-1" x="204.18" y="69.56" width="230.91" height="2.09"/><rect class="cls-1" x="204.17" y="62.37" width="230.92" height="1.99"/><rect class="cls-1" x="204.16" y="55.19" width="230.92" height="1.9"/><rect class="cls-1" x="204.16" y="48.01" width="230.92" height="1.81"/><rect class="cls-1" x="204.15" y="40.83" width="230.91" height="1.71"/><rect class="cls-1" x="204.14" y="33.67" width="230.91" height="1.62"/><path class="cls-1" d="M681.63,300.4c.41-.13.82-9.56,1.23-9.7.84-.05,1.56.58,2.42.41,1.62-.53,3.26-1,4.86-1.61l.81-1.22c.41-3.45-1.9-6.35-2-9.7a2.93,2.93,0,0,0,2-1.22c0-.53,0-1.07,0-1.61a5.3,5.3,0,0,1-2-3.64,4,4,0,0,0-2.42-.82,29.28,29.28,0,0,0-5.26-3.24c.14-.4.27-.8.41-1.21l1.21.41c1.23-.48,1.9-1.61,2.84-2.43.06-.8-1.09-1.12-.81-2l1.22-.8h1.61l.81-.81V260c-.5-.68-1.62-.35-2-1.22-1.43-.51-3-.22-4.44-.82v-1.21a3.8,3.8,0,0,1,1.62-.4l.81-.81c-.92-.43-1.34-1.35-2-2-.69-1.21-1.68-2.25-2-3.65a3.7,3.7,0,0,0,.41-2l-.81-.81a4.21,4.21,0,0,1-2.42-.4,7.18,7.18,0,0,1,1.62-2c-.1-1.25-1.49-1.2-2-2-1.65-.26-3.22.44-4.85.4a5.59,5.59,0,0,1-1.22-2.43c0-.69.14-1.43-.4-2-.78-.7-1.36-1.65-2.42-2-.67.14-1.47-.34-2,.41a2.26,2.26,0,0,1-2-1.62c.68-.81,1.66-1.36,2-2.42,0-.55,0-1.08,0-1.63-.68-1.34-1.46-2.63-2-4l-1.62-1.62c-.94.05-1.42-.67-2-1.22-1.51-.26-2.94.52-4.44.4a24.07,24.07,0,0,0-4-5.26,7.62,7.62,0,0,1-2.42-1.62h-6.07l-.81-1.22c-.7-.19-1.2-.9-2-.81a6.78,6.78,0,0,0-1.21-1.62,4.22,4.22,0,0,0,.41-2.42h-2l-1.62.8-1.21-.4c-.38-.7-.74-1.42-1.62-1.62h-2.42c-1.2.28-1.54,1.49-2,2.43a6.85,6.85,0,0,0-1.62,1.21,9.25,9.25,0,0,1-2.42-2,15,15,0,0,0-2.83-1.62,3.67,3.67,0,0,1-1.62-.41c-1.21.11-2.49-.31-3.64.4-.66.87-.32,1.88-.4,2.83a13.86,13.86,0,0,1,1.21,2.83l.8.81-.81,1.22a6.59,6.59,0,0,0-1.62,1.21c-2.16.35-4.28,1-6.47,1.2a8.28,8.28,0,0,1-2.83-2,12.9,12.9,0,0,0-4.85-1.22,8.21,8.21,0,0,1-2,.81,14.2,14.2,0,0,0-4.45.4c-1.17.52-2.49.62-3.64,1.21l-3.64,3.63a21.64,21.64,0,0,1-4.86.8c-1.43.54-3,.13-4.45.8a5.29,5.29,0,0,1-2.83-.4,17.57,17.57,0,0,0-5.66,2l-2.43,2.42c.14.4.26.81.4,1.22a4.32,4.32,0,0,1-2.43.4c-1,.31-1.5,1.25-2.42,1.61l-.81,1.21a3.72,3.72,0,0,1-.41,2,79.87,79.87,0,0,0,4.44,6.88c0,.41,0,.81,0,1.22l-1.21.8c-1.5.08-2.93-.65-4.45-.41-1,.41-1.68,1.34-2.83,1.21,0,.44-.17,1,.4,1.21l-.81,1.22a3.72,3.72,0,0,0-2-.41c-.84.64-2,.1-2.83.8.27,1.73-1.5,2.31-2.43,3.24a2.74,2.74,0,0,1-.81,2.42,3.68,3.68,0,0,0,1.21,1.62c.72-.09,1.1.49,1.61.81l-.81,1.21c-.86-.17-1.58.45-2.42.4a34.54,34.54,0,0,1-3.65,2.83,4.74,4.74,0,0,1-1.21,2.83c0,.4,0,.81,0,1.21.43.66.55,1.5,1.22,2l2.42.81c2.16.15,4.35-.39,6.47.41l-.81,1.21c-1.37.5-2.73,1-4,1.61-1.46,1-3,1.78-4.45,2.83a24.23,24.23,0,0,0-2.43,2.82l-1.22,2.43v1.62c.41,1,1.21,1.81,1.62,2.83-1,1.74-2.56,2.84-4,4-.7.82-.18,2-.82,2.83.06,1.39.92,2.61.81,4l1.21.81h2l1.21.82c-.68,1.4-.45,3.05-1.22,4.44-.61,1.32-1.14,2.67-1.62,4-.14,2.7,1.48,5,1.61,7.69a20.39,20.39,0,0,1,1.61,4,5.27,5.27,0,0,0,.4,2.83c1,.8,1.58,2,2.82,2.43h1.22a6.78,6.78,0,0,0,1.21,1.62c.72.09,1.1-.49,1.62-.81,1.08-.1,2.22.3,3.23-.4.88.5,2,.32,2.83.81v1.22c1.22,2,3.72,2.41,5.25,4.05h8.09v-1.21a12.18,12.18,0,0,1,2.43-2.83c0-.44.17-.95-.4-1.21-.83,0-1.7-.21-2.43.4-1.16.09-1.68-1.29-2.83-1.22-.78-1.11-1.3-2.4-2.42-3.24-1.13.91-1.75,2.28-2.84,3.23l-1.21.4-1.21-.8a8.87,8.87,0,0,1-.81-2,30.81,30.81,0,0,1,.82-4.45c1.38-1.25,3.31-1.16,4.85-2,.39.7.75,1.41,1.62,1.62,1.15-.07,1.67,1.3,2.83,1.21h1.21l.41-1.22c1.38-1.35,3.6-1.24,4.85-2.82,1.14-.24,2.1-1,3.24-1.21,1,.15,1.84-.56,2.83-.4a2.58,2.58,0,0,0,.81-1.21l1.21-.81a76,76,0,0,1,7.69.42c2.34.12,4.62-.43,6.92-.24a.7.7,0,0,1,.51.3c.11,0,.24,0,.3.1v.41c-.19.15-.28.39-.51.5l-.6.31a4.51,4.51,0,0,1-1.32-.11,1.86,1.86,0,0,0-.1-.2c-.32,0-.44-.32-.7-.41s-.44.11-.61-.1c-.2.06-.44-.12-.61.1a8.54,8.54,0,0,1-2-.1.37.37,0,0,1-.05.25c-.64.64,0,1.78-.81,2.42a3.75,3.75,0,0,0-2-.4,31.73,31.73,0,0,0-4,1.2c-.8,1-2,1.45-2.83,2.43-.12.39.12.61.4.81-.14.4-.27.8-.41,1.21-1.44.47-2.38,1.68-3.64,2.42v.81a3.68,3.68,0,0,0,1.62,1.21c1-.14,1.84.57,2.83.41,1.44.81,2.45,2.24,4,2.84a1.51,1.51,0,0,0,1.22-1.21c-.14-.27-.27-.54-.4-.81l1.21-.81h1.62a2.59,2.59,0,0,0,1.62-.8,5.26,5.26,0,0,1,.4-2.83,11,11,0,0,1,2-1.21l1.21.4,1.21,2.43c.92-.1.87.75,1.21,1.22,1,0,1.84.62,2.83.4.71-1.25.52-2.7.82-4l1.21-.81a108.81,108.81,0,0,1,5.65,10.12,41.9,41.9,0,0,0,1.61,4.86,116.49,116.49,0,0,1-.42,12.53c-.27.4-.54.81-.82,1.21-1.51-.28-2.8-1.39-4.44-1.22l-.41.81a4.21,4.21,0,0,1-2.42.4c-.92,1.21-2.76.34-3.65,1.61-1.78.27-3.48-.54-5.25-.41a2.53,2.53,0,0,0-1.62.81c-1.3-.63-2.69-.35-4-.41l-.81,1.21c-5.8-.3-11.61.57-17.39-.43l-1.21.81c-4.86.06-9.72-.28-14.56.38l-1.22-.81-1.21.81c-1.22-.05-2.47.19-3.64-.41a3.64,3.64,0,0,0-2,.4c-4.31-.27-8.65.53-12.94-.42-1.18-.14-2.15.56-3.24.8,4.24,1.21,8.69.24,12.94,1.23,1.36-.06,2.75.27,4-.4,5.06,1.42,10.23.62,15.36.84l2.43.81c1.13.32,2.11-.63,3.23-.4l1.21.81c7,.47,14,1.42,21,2.05,1.62-.12,3.28.34,4.85-.4,2,.14,4.09-.36,6.07.42,8.33-1,16.77-.06,25.07-1.58a3.8,3.8,0,0,0,1.62.4l2.42-.8c2,.13,4.09-.36,6.07.41a11.49,11.49,0,0,0,2-1.21,4.27,4.27,0,0,1,2.43.41c1.09,0,2.21.18,3.23-.4,1.36.06,2.75-.22,4,.41a88.3,88.3,0,0,1,11.72-.8c2.93.89,5.93.2,8.9.42a8.59,8.59,0,0,1,2-.8c8.63-.3,17.27.63,25.88-.37a49.26,49.26,0,0,0,11.73-1.2,54.79,54.79,0,0,1-12.13-.82c-5.52-.3-11.07.56-16.58-.43-.92.28-2-.48-2.83.4-7.12-.92-14.3-.16-21.43-.84-1.68-.7-3.53-.68-5.25-1.22l-.81.4c-2.21-1-4.67.16-6.87-.81-1.9.11-3.82-.35-5.67.39a4.3,4.3,0,0,1-2.42-.41c-1.21.24-2.52-.52-3.64.4-1.71-.75-3.51-.28-5.26-.41l-1.21-.81c-.55.08-1.22-.27-1.62.4-1.13-.17-2-1.15-3.23-.81-.72-1.12-.09-2.53-.81-3.64a30.06,30.06,0,0,1,1.63-7.68,112.69,112.69,0,0,1,6.49-9.29c1.79-2.38,2.82-5.21,4.45-7.68a2.53,2.53,0,0,1,2,.41,9,9,0,0,0,2.83,4.45h6.87a7.36,7.36,0,0,1,2,1.62h2.83l.81-.8c.14-1.18-.56-2.16-.8-3.24l-.81-.81v-1.21c1-.15.91-1.63,2-1.62,2,1.67,4.28,2.93,6,4.86a3.67,3.67,0,0,1,.41,1.62l.8.81a3.67,3.67,0,0,0,1.62.41c1.12-.32,2.49-.73,2.83-2a25.75,25.75,0,0,0,.42-6.07l2.43-1.61h5.25a7.21,7.21,0,0,1,2,1.62h1.22l1.21-1.21-.81-1.62a5.21,5.21,0,0,1-2.83-.41,5.73,5.73,0,0,1,1.22-2.42,5.19,5.19,0,0,1,2.83-.4c.9,0,1.51.87,2.43.81a11.14,11.14,0,0,1,1.21,2l2,2a8.62,8.62,0,0,1-.81,2,3.83,3.83,0,0,1-1.62.4A2.65,2.65,0,0,0,676,317l.4.4a3.71,3.71,0,0,0,2-.4,3.8,3.8,0,0,1,1.62.4,5.19,5.19,0,0,1-.41,2.83l-1.21.41c-1-.59-2.15-.38-3.24-.41-1.84.77-3.77.25-5.66.39-2,.93-3.9,2.2-6.07,2.83-.65,1.33-2.35,1.75-2.83,3.23,0,.27,0,.53,0,.8a23.58,23.58,0,0,0,6.48-.79c.66-.43,1.5-.55,2-1.21,1.22-.26,2.35-.87,3.64-.81a5,5,0,0,0,2.43-1.21,3.77,3.77,0,0,0,.41-1.62l1.21-.8a3.8,3.8,0,0,1,1.62.4c.4,1-.62,1.84-.41,2.84.4.67,1.06.31,1.61.4a7.4,7.4,0,0,0,3.65-2v-.81l-.81-.41c.57-1.33,1-2.73,1.62-4l1.22-.4c1.74.62,1.83,2.65,2.42,4l1.62.82c.69,0,1.42.13,2-.41,1.44-1.38,3-2.6,4.45-4-.15-.81.39-1.73-.4-2.43l.81-1.21v-1.21a6.91,6.91,0,0,0-1.21-1.63c-1.14-.75-2.43-.27-3.64-.41-2.25.8-4.58.24-6.87.4l-1.21-.81c.13-.41.26-.81.4-1.21a3.64,3.64,0,0,1,2-.4c.69-.56.94-1.47,1.63-2,.05-.59.24-1.21-.41-1.62h-2.83c-1.33,1-2.92,1-4.45,1.21l-.81-.41c.14-.4.27-.8.41-1.21,1.82-1.09,4-1.49,5.67-2.82a26.05,26.05,0,0,1,4.85-1.2c1.89.84,3,2.69,4.85,3.64,1.18.22,2.5,1.38,3.63.41.81-1.56.25-3.24.42-4.85-.54-1.17-1.34-2.25-1.21-3.64-3.34.68-6.79-.09-10.11.79a7.59,7.59,0,0,1-2,1.62h-2.42L682,299.6a30.17,30.17,0,0,1-5.26,2c-.7-.38-1.41-.75-1.62-1.62a1.76,1.76,0,0,0-1.21-.41,7.36,7.36,0,0,0-1.21-1.62h-2.42c-.89-.88-2.33-1.11-2.84-2.43,0-.89,1.26-1.08,1.22-2l-3.23-3.24h-2.83l-2.42-.82h-2.84c-.73.49-1.71.23-2.42.81-3.58-.52-6.85-2.31-10.51-2.45l-.81-1.21.81-1.61c.88-.5,1.95-.32,2.84-.81,1.36,0,2.65.65,4,.41s2.3-1.38,3.64-1.61c.95-.08,2,.26,2.83-.4,1,.64,2.25.17,3.23.81.17,1.44,1.28,2,2,2.83,1.3.67,2.69.33,4,.41,1.11.49,2,1.44,3.24,1.62a11.76,11.76,0,0,0,2.42,2.84H676a7,7,0,0,0,1.61,2h2" transform="translate(-294.74 -151.98)"/><path class="cls-1" d="M621.81,286.78" transform="translate(-294.74 -151.98)"/><rect class="cls-1" x="647.68" y="263.78" width="23.45" height="49.33" transform="translate(75.18 795.42) rotate(-89.91)"/><path class="cls-1" d="M659.41,288.45" transform="translate(-294.74 -151.98)"/><polygon class="cls-1" points="385.27 151.06 385.28 144.18 376.79 144.17 376.78 151.04 385.27 151.06"/><path class="cls-1" d="M675.77,299.6" transform="translate(-294.74 -151.98)"/><path class="cls-1" d="M603.32,345.58c-.72-4.69-.61-9.42-.79-14.15a8.3,8.3,0,0,1-.8-2.42l-.81-.82c.26-.75-.66-1.26-.4-2-.49-.48-.56-1.26-1.21-1.62.1-.93-.9-1.5-.81-2.42a.93.93,0,0,1-.8-.81h-1.62l-.81.81h-.81c-.14.27-.27.54-.4.81a4.62,4.62,0,0,0-2.84.8,41.56,41.56,0,0,0-6.87.4l-2,1.61h-3.23c-.16-.64-1.05-.18-1.21-.81a97.22,97.22,0,0,1-12.54-.43c-.77-.83-2.05-.78-2.82-1.62-1.39.19-2.66-.7-4-.41a8.62,8.62,0,0,1-2-.81c-1,.14-.56-1.5-1.61-1.22a13.27,13.27,0,0,1-.81-2.83,2.58,2.58,0,0,1-.81-1.21c0-1.89,0-3.77,0-5.66,1-.77,1.42-2.06,2.43-2.83.14-.4.27-.81.41-1.21a12.58,12.58,0,0,1,3.24-2.42h.8c.7-1,2-1.22,2.84-2h1.62l.81-.81c3.54.28,7-1.21,10.51-.79l4.86-1.61a31.89,31.89,0,0,0,5.66-.8h8.49c.75.93,2,.85,3.23.82l.81,1.61c1.52-.16,2.66.94,4,1.22l.81.81v.81c1.41,1.49,3.26,2.38,4.84,3.65l1.62.41.81,2a11,11,0,0,1,2,1.22l2,.4a34.29,34.29,0,0,0,2,4.86,6.59,6.59,0,0,1,1.21,1.62c.06.82-.22,1.7.41,2.42.32,1-.61,1.84-.41,2.83l-1.22,1.22c-1.66,6.37-.29,13-1.65,19.4a7.39,7.39,0,0,1-1.21,2.43c-1-.05-1.62.78-2.43,1.2h-2L609,348h-2.43v1.61a13.49,13.49,0,0,1-2.42-.81Z" transform="translate(-294.74 -151.98)"/><path class="cls-1" d="M688.72,289.91c-.58-.05-1,.67-1.61.4a8.25,8.25,0,0,0-.42,3.24c1.4,0,.06.88.41,1.21,2.2.9,4.68.26,6.87,1.22-.26,1.22.87,1.86,1.21,2.83-.58.39-.14,1.28-.81,1.62.06.71-.64,1.27-.41,2-.44,0-.68.66-1.21.4.11.4-.13.61-.41.81-.48-.08-.93-.1-1.21.4-.16.67-.61,1.28-.41,2-.15.38-.13.94-.81.8v3.64c.39-.11.61.12.8.4a2.78,2.78,0,0,0,.81,2v3.23c-1.07-.12.12,1.26-.82,1.22v2.83a18.79,18.79,0,0,0-1.21,1.61c-.52.1-1.06.16-1.22.81h-2.83c-.23.43-1,.53-.81,1.21-1.11.72-2.54.45-3.64,1.21-2.36-.33-4.51,1.17-6.88.79l-.8-.81c-1.84.27-3.26,1.89-5.27,1.61l-.8.81a6.38,6.38,0,0,0-2.83.81h-3.24L660,327.07a1.75,1.75,0,0,1-.4-1.22l-.81-.81c.25-.88-1-1.15-.81-2h-3.23a6.69,6.69,0,0,0-2.83-.81,22.78,22.78,0,0,0-6.87-.82,13.6,13.6,0,0,1-3.64.4c-.15-.93-1.51-.65-1.62-1.62-.71-.06-1.27.64-2,.4-.9-.5-1.89-.8-2.83-1.21-1.3-2.64-3.37-4.76-4.84-7.29-.14-.54-.27-1.08-.4-1.61l-2-2c-.89-1.38-1.83-2.74-2.83-4.05l0-20.62a28.45,28.45,0,0,1-.79-8.09l-.81-4.85-1.61-3.24a7.94,7.94,0,0,0-.8-3.24c0-1.75,0-3.5,0-5.25l6.07-6.06c1.11.11,2.09-.78,3.23-.4a100.55,100.55,0,0,0,10.52,1.23,8.8,8.8,0,0,1,2,.81,3.54,3.54,0,0,0,1.61,1.22c1.29.56,2.77.16,4,.81a10.34,10.34,0,0,1,2,1.22,23.16,23.16,0,0,0,7.28,2.43c.66.76,1.78.84,2.42,1.62,2.73,1.16,5.46,2.3,8.08,3.65l4,.82c1.43,1,3.16,1.58,4.44,2.84v1.21c.66.32,1.47.24,2,.81h1.62c1.58,1.61,4.11,1.57,5.65,3.25,1.4,0,.06.88.41,1.21l.81.81c0,.95,0,1.89,0,2.83" transform="translate(-294.74 -151.98)"/><path class="cls-1" d="M687.31,290.11" transform="translate(-294.74 -151.98)"/><path d="M581.54,307.13c-.64.65,0,1.79-.81,2.43a3.65,3.65,0,0,0-2-.41,30.37,30.37,0,0,0-4.05,1.21c-.8,1-2,1.44-2.83,2.42-.11.39.12.61.4.81-.14.41-.27.8-.4,1.21-1.45.47-2.39,1.68-3.65,2.42V318a3.7,3.7,0,0,0,1.62,1.22c1-.15,1.84.57,2.83.41,1.44.81,2.45,2.23,4,2.83a1.51,1.51,0,0,0,1.22-1.21l-.4-.81,1.21-.8h1.62a2.53,2.53,0,0,0,1.62-.81,5.2,5.2,0,0,1,.41-2.83,11.14,11.14,0,0,1,2-1.21l1.21.41,1.21,2.42c.92-.1.87.75,1.21,1.22,1,0,1.84.62,2.83.4.71-1.25.52-2.69.82-4l1.21-.81a107.64,107.64,0,0,1,5.65,10.11,41.9,41.9,0,0,0,1.61,4.86,116.4,116.4,0,0,1-.42,12.53l-.81,1.22c-1.52-.29-2.81-1.4-4.45-1.23l-.41.82a4.38,4.38,0,0,1-2.42.4c-.92,1.2-2.76.33-3.64,1.61-1.79.26-3.49-.55-5.26-.41a2.49,2.49,0,0,0-1.62.8c-1.3-.63-2.69-.35-4-.41l-.81,1.21c-5.8-.3-11.61.57-17.39-.43l-1.21.81c-4.86.07-9.72-.28-14.56.39l-1.21-.81-1.22.8c-1.22-.05-2.47.2-3.63-.41a3.75,3.75,0,0,0-2,.4c-4.31-.27-8.65.53-12.94-.42-1.18-.14-2.15.56-3.23.81,4.24,1.2,8.68.24,12.94,1.23,1.35-.07,2.74.26,4-.4,5.06,1.41,10.24.61,15.36.83l2.43.81c1.13.32,2.11-.63,3.23-.4L558,350c7,.47,14,1.42,21,2.05,1.62-.12,3.28.34,4.85-.39,2,.13,4.09-.37,6.07.41,8.33-1,16.77-.06,25.07-1.58a4,4,0,0,0,1.62.41l2.42-.81c2,.14,4.09-.36,6.07.41a10.6,10.6,0,0,0,2-1.21,4.34,4.34,0,0,1,2.43.41c1.09,0,2.21.18,3.23-.4,1.36.06,2.75-.22,4,.41a88.44,88.44,0,0,1,11.73-.79c2.93.88,5.93.2,8.89.42a8.37,8.37,0,0,1,2-.81c8.63-.29,17.27.63,25.88-.37a49.2,49.2,0,0,0,11.73-1.19A55.45,55.45,0,0,1,685,346.1c-5.52-.29-11.07.56-16.58-.43-.92.28-2-.48-2.83.41-7.12-.93-14.3-.16-21.43-.85-1.68-.7-3.53-.68-5.25-1.22l-.81.4c-2.21-1-4.67.16-6.87-.81-1.89.12-3.82-.35-5.67.39a4.22,4.22,0,0,1-2.42-.41c-1.2.25-2.52-.51-3.64.41-1.71-.76-3.51-.29-5.26-.42l-1.21-.81c-.55.09-1.21-.27-1.62.4-1.13-.17-2-1.14-3.23-.81-.72-1.11-.09-2.53-.8-3.64A29.71,29.71,0,0,1,609,331a112.69,112.69,0,0,1,6.49-9.29c1.79-2.38,2.82-5.2,4.46-7.68a2.59,2.59,0,0,1,2,.41,8.84,8.84,0,0,0,2.82,4.45h6.88a7.71,7.71,0,0,1,2,1.62h2.83l.81-.8c.13-1.18-.57-2.15-.81-3.24l-.81-.81c0-.4,0-.81,0-1.21,1-.14.9-1.63,2-1.61,2,1.66,4.28,2.93,6.06,4.86a3.72,3.72,0,0,1,.4,1.61l.81.82a3.75,3.75,0,0,0,1.61.4c1.13-.31,2.49-.72,2.84-2a26.2,26.2,0,0,0,.41-6.06l2.43-1.62h5.26a7.5,7.5,0,0,1,2,1.62h1.22l1.21-1.21c-.27-.54-.54-1.07-.8-1.62a5.27,5.27,0,0,1-2.83-.4,5.58,5.58,0,0,1,1.21-2.43,5.19,5.19,0,0,1,2.83-.4c.9,0,1.51.87,2.43.82a11.14,11.14,0,0,1,1.21,2l2,2a8.45,8.45,0,0,1-.81,2,3.81,3.81,0,0,1-1.62.41,2.58,2.58,0,0,0-.81,1.21l.4.4a3.75,3.75,0,0,0,2-.4,3.63,3.63,0,0,1,1.61.41,5.2,5.2,0,0,1-.41,2.83l-1.21.4c-1-.59-2.14-.38-3.24-.41-1.84.77-3.77.25-5.66.4-2,.93-3.9,2.19-6.06,2.82-.66,1.33-2.35,1.75-2.84,3.23v.81a23.57,23.57,0,0,0,6.47-.8c.66-.43,1.5-.55,2-1.21a14.64,14.64,0,0,1,3.64-.81,5.07,5.07,0,0,0,2.43-1.2,3.81,3.81,0,0,0,.41-1.62l1.21-.81a3.67,3.67,0,0,1,1.62.41c.4,1-.62,1.83-.41,2.83.4.67,1.07.32,1.62.4a7.41,7.41,0,0,0,3.64-2v-.81l-.81-.41c.58-1.33,1-2.73,1.63-4l1.21-.4c1.74.62,1.84,2.65,2.42,4.05l1.61.81c.7,0,1.43.13,2-.4,1.44-1.39,3-2.61,4.45-4-.15-.81.39-1.73-.4-2.43l.81-1.21v-1.21a6.59,6.59,0,0,0-1.21-1.62c-1.14-.76-2.42-.28-3.64-.41-2.25.79-4.58.23-6.87.39-.41-.27-.81-.53-1.21-.81l.4-1.21a3.75,3.75,0,0,1,2-.4c.68-.56.93-1.46,1.61-2,.06-.59.26-1.21-.4-1.62h-2.83c-1.32,1-2.92,1-4.45,1.2l-.8-.4c.13-.41.27-.81.4-1.21,1.82-1.09,4-1.5,5.67-2.83a26.05,26.05,0,0,1,4.85-1.2c1.9.84,3,2.69,4.85,3.64,1.17.22,2.5,1.39,3.64.41.8-1.56.24-3.24.41-4.85-.54-1.17-1.34-2.25-1.21-3.64-3.34.68-6.79-.09-10.11.79a7.36,7.36,0,0,1-2,1.62h-2.43l-.81,1.21a29.1,29.1,0,0,1-5.26,2c-.7-.38-1.41-.75-1.62-1.62a1.75,1.75,0,0,0-1.21-.4,6.59,6.59,0,0,0-1.21-1.62H659.2c-.89-.88-2.33-1.1-2.83-2.43,0-.89,1.26-1.07,1.21-2l-3.23-3.24h-2.83l-2.42-.81h-2.83c-.74.49-1.72.23-2.43.81-3.58-.51-6.85-2.31-10.51-2.44l-.81-1.22.81-1.61c.88-.49,2-.32,2.84-.81,1.36,0,2.65.65,4,.41s2.29-1.37,3.64-1.61c.95-.07,2,.26,2.83-.4,1,.64,2.25.17,3.23.81.18,1.45,1.28,2,2,2.83,1.3.67,2.69.33,4.05.42,1.1.49,2,1.44,3.23,1.62a12.14,12.14,0,0,0,2.42,2.83h3.24a7.32,7.32,0,0,0,1.61,2h2l2-2,1.21-.4c.84-.05,1.57.57,2.43.4,1.62-.53,3.25-1,4.85-1.61l.81-1.21c.41-3.46-1.9-6.36-2-9.71a3,3,0,0,0,2-1.21v-1.62a5.3,5.3,0,0,1-2-3.64,3.92,3.92,0,0,0-2.42-.81,27.79,27.79,0,0,0-5.25-3.24c.13-.41.27-.81.4-1.22l1.21.41c1.23-.48,1.9-1.6,2.84-2.42.06-.81-1.09-1.13-.81-2L675,260h1.62l.8-.81c0-.4,0-.8,0-1.21-.51-.68-1.62-.35-2-1.22-1.44-.51-3-.21-4.45-.81v-1.22a3.8,3.8,0,0,1,1.62-.4l.81-.8c-.91-.44-1.34-1.36-2-2-.69-1.21-1.68-2.24-2-3.64a3.74,3.74,0,0,0,.41-2L669,245a4.3,4.3,0,0,1-2.42-.41,7.36,7.36,0,0,1,1.62-2c-.1-1.24-1.49-1.2-2-2-1.65-.27-3.22.43-4.85.39a5.61,5.61,0,0,1-1.22-2.42c0-.7.14-1.43-.39-2-.8-.7-1.37-1.65-2.43-2-.67.14-1.47-.35-2,.4a2.26,2.26,0,0,1-2-1.62c.68-.8,1.66-1.36,2-2.42V229.2c-.68-1.35-1.46-2.64-2-4l-1.61-1.62c-1,.06-1.43-.67-2-1.22-1.52-.26-3,.52-4.45.4a24.55,24.55,0,0,0-4-5.26,7.57,7.57,0,0,1-2.42-1.62h-6.07c-.27-.4-.53-.81-.81-1.21-.7-.2-1.2-.9-2-.82a7,7,0,0,0-1.2-1.61,4.26,4.26,0,0,0,.4-2.43h-2l-1.62.8-1.21-.4c-.38-.7-.75-1.41-1.62-1.62H620.1c-1.2.27-1.54,1.48-2,2.42a6.85,6.85,0,0,0-1.62,1.21,9.41,9.41,0,0,1-2.42-2,15.24,15.24,0,0,0-2.83-1.62,3.8,3.8,0,0,1-1.62-.4c-1.21.1-2.49-.32-3.63.39-.67.87-.33,1.88-.41,2.83a14,14,0,0,1,1.21,2.84l.8.8c-.27.41-.53.81-.81,1.22a6.78,6.78,0,0,0-1.62,1.21c-2.16.36-4.27,1-6.47,1.2a8,8,0,0,1-2.82-2,13,13,0,0,0-4.86-1.21,8.59,8.59,0,0,1-2,.8,14.5,14.5,0,0,0-4.45.4c-1.17.52-2.48.62-3.64,1.21l-3.64,3.63a21.64,21.64,0,0,1-4.86.8c-1.43.55-3,.13-4.45.81a5.39,5.39,0,0,1-2.83-.41,17.57,17.57,0,0,0-5.66,2L557,227c.14.4.27.8.4,1.21a4.21,4.21,0,0,1-2.42.4c-1,.31-1.5,1.25-2.43,1.62l-.81,1.21a3.74,3.74,0,0,1-.41,2c1.42,2.33,2.79,4.69,4.44,6.88v1.21l-1.22.8c-1.5.09-2.93-.65-4.44-.4-1,.41-1.69,1.33-2.84,1.2,0,.44-.16,1,.4,1.22l-.8,1.21a3.75,3.75,0,0,0-2-.41c-.83.64-2,.11-2.83.81.28,1.72-1.5,2.3-2.43,3.23a2.73,2.73,0,0,1-.81,2.42,3.68,3.68,0,0,0,1.21,1.62c.72-.09,1.1.49,1.62.81l-.81,1.21c-.86-.17-1.59.45-2.43.41a35.38,35.38,0,0,1-3.64,2.82,4.81,4.81,0,0,1-1.22,2.83v1.21c.42.66.54,1.51,1.21,2l2.42.81c2.16.16,4.36-.39,6.47.42l-.81,1.21a42.64,42.64,0,0,0-4,1.61c-1.46,1-3,1.78-4.45,2.82a24.33,24.33,0,0,0-2.43,2.83c-.4.81-.81,1.61-1.21,2.42,0,.54,0,1.08,0,1.62.41,1,1.21,1.81,1.62,2.83-1,1.74-2.56,2.84-4,4-.7.82-.18,2-.82,2.83.06,1.39.93,2.62.81,4.05l1.21.8h2l1.21.81c-.68,1.4-.45,3.06-1.22,4.44-.61,1.32-1.13,2.68-1.62,4-.13,2.7,1.48,5,1.61,7.68a20.23,20.23,0,0,1,1.61,4.05,5.29,5.29,0,0,0,.4,2.83c1,.79,1.58,2,2.82,2.43h1.22a6.78,6.78,0,0,0,1.21,1.62c.72.09,1.1-.49,1.62-.81,1.08-.1,2.22.31,3.23-.4.88.5,2,.32,2.83.82v1.21c1.22,2,3.72,2.42,5.25,4.05h8.09v-1.21a12.18,12.18,0,0,1,2.43-2.83c0-.44.17-1-.4-1.21-.83.05-1.7-.21-2.43.4-1.16.09-1.68-1.29-2.83-1.22-.78-1.1-1.3-2.39-2.42-3.24-1.13.92-1.75,2.28-2.83,3.23L550,320l-1.21-.81a8.7,8.7,0,0,1-.81-2,30.43,30.43,0,0,1,.82-4.44c1.38-1.26,3.31-1.17,4.85-2,.39.7.75,1.41,1.62,1.62,1.15-.07,1.67,1.31,2.83,1.22h1.21c.14-.4.27-.81.41-1.21,1.38-1.35,3.6-1.25,4.85-2.83,1.14-.24,2.1-1,3.24-1.21,1,.15,1.85-.56,2.83-.39a2.65,2.65,0,0,0,.81-1.22l1.22-.8a75.84,75.84,0,0,1,7.68.41c2.34.12,4.62-.43,6.92-.24a.73.73,0,0,1,.51.3c.11,0,.24,0,.3.11v.4c-.19.15-.27.4-.5.5l-.61.31a4.41,4.41,0,0,1-1.31-.11c0-.06-.07-.13-.11-.2-.32,0-.44-.32-.7-.4s-.44.1-.61-.11c-.2.07-.44-.12-.61.1a8.06,8.06,0,0,1-2-.1A.37.37,0,0,1,581.54,307.13Z" transform="translate(-294.74 -151.98)"/><path class="cls-1" d="M627,310c3.65.46.78-1.5.81-1.21-.41-.14-1.57-.38-2-.51-1.31.87.59.21-.46.91C627,310,622.12,310,627,310Z" transform="translate(-294.74 -151.98)"/><path class="cls-1" d="M540.72,289.69a19.33,19.33,0,0,0-3.23-1.22c-.67,0-1,.6-1.22,1.61l1.22.41a7.13,7.13,0,0,1,1.21,1.62,2.51,2.51,0,0,0,2,.4,2.71,2.71,0,0,1,1.22-.8c.13-.41.26-.81.4-1.21Z" transform="translate(-294.74 -151.98)"/><path class="cls-1" d="M591.67,293a7.26,7.26,0,0,1-2,1.62v1.21c.78.65.87,1.76,1.62,2.43a3.64,3.64,0,0,0,2-.4c.14-.41.27-.81.41-1.21-.76-.55-.27-1.35-.41-2Z" transform="translate(-294.74 -151.98)"/><path class="cls-1" d="M649.89,293.89l1.22.4a7.5,7.5,0,0,0,1.62-2,4.52,4.52,0,0,0-4.45-.41v1.21Z" transform="translate(-294.74 -151.98)"/><path class="cls-1" d="M609.83,314.05l-.81,1.21a16.46,16.46,0,0,1-1.22,5.26v2.42l.81,1.22c1.74-1.23,2.82-3.11,4.45-4.45.92-1.36,2-2.62,2.84-4,.11-1.08,1-1.81,1.21-2.83a4,4,0,0,0-2-2,5.22,5.22,0,0,0-2.84.4C611.23,312,610.79,313.23,609.83,314.05Z" transform="translate(-294.74 -151.98)"/><path class="cls-1" d="M598.52,309.18a10.27,10.27,0,0,1-2-3.64c-.2-2-.8-.54-1.21-.81a2.74,2.74,0,0,1-1.21.8c-.58.86-1.2-.66-.81,1.21-1-1.57-1.34,1.56.8,1.22h.81c.66.52.78,1.36,1.21,2v2c.27.81.54,1.61.8,2.42a15.71,15.71,0,0,1,2.42,4.05v1.21a6.89,6.89,0,0,0,1.62,1.22,8.8,8.8,0,0,0,.81-2,2.55,2.55,0,0,1-.81-1.62c0-1.21,0-2.42,0-3.64-.49-.88-.32-1.95-.81-2.83Z" transform="translate(-294.74 -151.98)"/><path class="cls-1" d="M637.44,240.5a5.5,5.5,0,0,0-1.22,2.42,40.12,40.12,0,0,0,6.87,2,2.25,2.25,0,0,0,2-.8l-.41-1.22c-1.3-1.13-3.17-1.23-4.44-2.43Z" transform="translate(-294.74 -151.98)"/><path class="cls-1" d="M568.64,278.81c-1.38.22-2.69-.37-4-.41a2.24,2.24,0,0,0-2,1.61,19.33,19.33,0,0,0,3.64,3.24h1.62c1.11.7,2.44.75,3.63,1.21,1.12-.69,2.72-.05,3.64-1.2l.41-1.22a11.49,11.49,0,0,0-1.21-2c-1.11-.71-2.44-.76-3.64-1.22Z" transform="translate(-294.74 -151.98)"/><path class="cls-1" d="M578.74,286.91a6.59,6.59,0,0,1-1.21-1.62l-1.21-.81a8.41,8.41,0,0,1-2,.8,7.06,7.06,0,0,0-1.21,1.62c.52,1.06,1.49,1.78,2,2.84a2.27,2.27,0,0,0,2,.81c.87.21,1.24.92,1.62,1.62a3.8,3.8,0,0,1,1.62.4l.81-.81v-1.2l-.81-.82C580.49,288.49,579.55,287.66,578.74,286.91Z" transform="translate(-294.74 -151.98)"/><path class="cls-1" d="M565.81,275.17,565,274a3.8,3.8,0,0,0-1.62.4v1.21a2.46,2.46,0,0,0,1.61.81C565.28,276,565.54,275.57,565.81,275.17Z" transform="translate(-294.74 -151.98)"/></g></svg>