<svg xmlns="http://www.w3.org/2000/svg" viewBox="0 0 216 26"><defs><style>.cls-1{fill:#fff;}.cls-10,.cls-11,.cls-12,.cls-13,.cls-14,.cls-15,.cls-16,.cls-17,.cls-18,.cls-19,.cls-2,.cls-20,.cls-21,.cls-22,.cls-23,.cls-24,.cls-25,.cls-26,.cls-27,.cls-28,.cls-3,.cls-4,.cls-5,.cls-6,.cls-7,.cls-8,.cls-9{fill:none;stroke:#000;}.cls-2{stroke-width:0.37px;}.cls-3{stroke-width:0.36px;}.cls-4{stroke-width:0.35px;}.cls-5{stroke-width:0.35px;}.cls-6{stroke-width:0.34px;}.cls-7{stroke-width:0.33px;}.cls-8{stroke-width:0.32px;}.cls-9{stroke-width:0.31px;}.cls-10{stroke-width:0.3px;}.cls-11{stroke-width:0.29px;}.cls-12{stroke-width:0.29px;}.cls-13{stroke-width:0.28px;}.cls-14{stroke-width:0.27px;}.cls-15{stroke-width:0.26px;}.cls-16{stroke-width:0.25px;}.cls-17{stroke-width:0.24px;}.cls-18{stroke-width:0.23px;}.cls-19{stroke-width:0.23px;}.cls-20{stroke-width:0.22px;}.cls-21{stroke-width:0.21px;}.cls-22{stroke-width:0.2px;}.cls-23{stroke-width:0.19px;}.cls-24{stroke-width:0.18px;}.cls-25{stroke-width:0.17px;}.cls-26{stroke-width:0.17px;}.cls-27{stroke-width:0.16px;}.cls-28{stroke-width:0.15px;}</style></defs><g id="レイヤー_1" data-name="レイヤー 1"><rect class="cls-1" width="216" height="26"/></g><g id="レイヤー_2" data-name="レイヤー 2"><path d="M7180.36,7193.34a.56.56,0,0,0-.56.55v7.37a.65.65,0,0,0,0,.2,4,4,0,0,1-1.93,3.77,4.74,4.74,0,0,1-4.6-.07,3.74,3.74,0,0,1-1.88-3.4V7194a.56.56,0,1,0-1.12,0v7.74a4.88,4.88,0,0,0,2.44,4.37,5.83,5.83,0,0,0,5.72.07,4.7,4.7,0,0,0,1.29-1.09.23.23,0,0,1,.12.06v1a.56.56,0,0,0,1.12,0v-12.25A.56.56,0,0,0,7180.36,7193.34Zm-29.18,0a.56.56,0,0,0-.55.56v2.36a.23.23,0,0,1-.14,0,6.67,6.67,0,1,0-.05,7.64.29.29,0,0,1,.19-.08v2.33a.56.56,0,1,0,1.11,0v-12.29A.56.56,0,0,0,7151.18,7193.37Zm-6.18,12.29a5.55,5.55,0,1,1,5.55-5.55A5.56,5.56,0,0,1,7145,7205.66Zm21.84-12.21a.56.56,0,0,0-.55.56v2.44a.27.27,0,0,1-.12,0,6.67,6.67,0,1,0,0,7.28.2.2,0,0,1,.13,0v.11c0,4.07-2.54,6-4.71,6.38a5.27,5.27,0,0,1-6-3.45.56.56,0,1,0-1,.4,6.35,6.35,0,0,0,7.22,4.15c2.59-.48,5.62-2.72,5.62-7.48V7194A.56.56,0,0,0,7166.84,7193.45Zm-6.25,12.21a5.55,5.55,0,1,1,5.55-5.55A5.56,5.56,0,0,1,7160.59,7205.66Zm31.52-11.71a5.88,5.88,0,0,0-5.72-.07,4.86,4.86,0,0,0-1.29,1.09.21.21,0,0,1-.12-.05v-1a.56.56,0,1,0-1.11,0v12.25a.56.56,0,1,0,1.11,0v-7.36a.45.45,0,0,0,0-.2,4,4,0,0,1,1.93-3.77,4.71,4.71,0,0,1,4.6.07,3.73,3.73,0,0,1,1.88,3.4v7.75a.56.56,0,1,0,1.12,0v-7.75A4.85,4.85,0,0,0,7192.11,7194Zm10.93-.58a6.67,6.67,0,1,0,6.66,6.67A6.67,6.67,0,0,0,7203,7193.37Zm0,12.22a5.55,5.55,0,1,1,5.55-5.55A5.56,5.56,0,0,1,7203,7205.59Z" transform="translate(-7091.5 -7186.5)"/><path d="M7208.66,7193.86v12.28a.56.56,0,0,0,1.12,0v-12.28a.56.56,0,1,0-1.12,0Z" transform="translate(-7091.5 -7186.5)"/><path d="M7208.77,7195.88v1l-.54-.8C7208.41,7196.37,7208.8,7196.31,7208.77,7195.88Z" transform="translate(-7091.5 -7186.5)"/><path d="M7208.79,7204.19v-1l-.54.8C7208.43,7203.7,7208.81,7203.76,7208.79,7204.19Z" transform="translate(-7091.5 -7186.5)"/><path d="M7236,7189.57a.56.56,0,0,0-.56.56v1.72a.56.56,0,0,0,1.12,0v-1.72A.56.56,0,0,0,7236,7189.57Zm-4.18-.07a.56.56,0,0,0-.56.56v7.63h-10.05v-7.56a.56.56,0,0,0-1.12,0v15.94a.56.56,0,1,0,1.12,0v-7.26h10.05v7.41a.56.56,0,0,0,1.12,0v-16.16A.56.56,0,0,0,7231.83,7189.5Zm4.18,4.69a.56.56,0,0,0-.56.56v11.39a.56.56,0,0,0,1.12,0v-11.39A.56.56,0,0,0,7236,7194.19Zm4.2-4.54a.56.56,0,0,0-.56.56v15.86a.56.56,0,1,0,1.11,0v-15.86A.56.56,0,0,0,7240.21,7189.65Zm4.22,0a.56.56,0,0,0-.55.56V7206a.56.56,0,1,0,1.11,0v-15.86A.56.56,0,0,0,7244.43,7189.61Zm6.94,9.35a2.83,2.83,0,0,1-2-.79,2.23,2.23,0,0,1-.68-1.56,2.54,2.54,0,0,1,2.69-2.35,2.58,2.58,0,0,1,2.68,2.18.56.56,0,1,0,1.11-.1,3.69,3.69,0,0,0-3.79-3.2,3.65,3.65,0,0,0-3.8,3.47,3.3,3.3,0,0,0,1,2.35,3.89,3.89,0,0,0,2.81,1.11,3.16,3.16,0,0,1,3.3,2.64,2.61,2.61,0,0,1-.62,1.95,3.47,3.47,0,0,1-2.35,1.16,3.18,3.18,0,0,1-3.55-2.63.56.56,0,1,0-1.11.11,4.3,4.3,0,0,0,4.74,3.63,4.56,4.56,0,0,0,3.12-1.55,3.74,3.74,0,0,0,.89-2.77A4.28,4.28,0,0,0,7251.37,7199Zm7.76,4.91a.55.55,0,0,0-.75.22l-2,3.65a.56.56,0,0,0,.21.76.57.57,0,0,0,.76-.22l2-3.65A.56.56,0,0,0,7259.13,7203.87Zm9.78-14.11a.56.56,0,0,0-.56.56v15.86a.56.56,0,1,0,1.12,0v-15.86A.56.56,0,0,0,7268.91,7189.76Zm32.07,14a.56.56,0,0,0-.56.56v1.71a.56.56,0,1,0,1.12,0v-1.71A.56.56,0,0,0,7301,7203.8Zm-8.84-9.36a5.8,5.8,0,0,1,5,3.35.56.56,0,0,0,.74.28.55.55,0,0,0,.28-.73,6.91,6.91,0,0,0-13.16,2.39,6.55,6.55,0,0,0,1.75,4.73,7,7,0,0,0,11.32-1.6.56.56,0,0,0-1-.49,5.86,5.86,0,0,1-9.5,1.34,5.44,5.44,0,0,1-1.45-3.93A5.69,5.69,0,0,1,7292.14,7194.44Zm-11.46-.47a5.9,5.9,0,0,0-5.73-.07,4.86,4.86,0,0,0-1.29,1.09.22.22,0,0,1-.11-.05v-1a.56.56,0,1,0-1.12,0v12.25a.56.56,0,1,0,1.12,0v-7.36a.64.64,0,0,0,0-.2,4,4,0,0,1,1.93-3.77,4.71,4.71,0,0,1,4.6.07,3.72,3.72,0,0,1,1.89,3.4v7.75a.56.56,0,1,0,1.11,0v-7.75A4.85,4.85,0,0,0,7280.68,7194Z" transform="translate(-7091.5 -7186.5)"/><path d="M7137.79,7205.66h-7.2v-15.45a.56.56,0,1,0-1.11,0v16.57h8.31a.56.56,0,1,0,0-1.12Z" transform="translate(-7091.5 -7186.5)"/><line class="cls-2" x1="5.98" y1="20.46" x2="27.17" y2="20.46"/><line class="cls-3" x1="5.98" y1="19.8" x2="27.17" y2="19.8"/><line class="cls-4" x1="5.98" y1="19.13" x2="27.17" y2="19.13"/><line class="cls-5" x1="5.98" y1="18.47" x2="27.17" y2="18.47"/><line class="cls-6" x1="5.98" y1="17.81" x2="27.17" y2="17.81"/><line class="cls-7" x1="5.98" y1="17.14" x2="27.17" y2="17.14"/><line class="cls-8" x1="5.97" y1="16.48" x2="27.17" y2="16.48"/><line class="cls-9" x1="5.97" y1="15.82" x2="27.17" y2="15.82"/><line class="cls-10" x1="5.97" y1="15.15" x2="27.17" y2="15.15"/><line class="cls-11" x1="5.97" y1="14.49" x2="27.17" y2="14.49"/><line class="cls-12" x1="5.97" y1="13.82" x2="27.17" y2="13.82"/><line class="cls-13" x1="5.97" y1="13.16" x2="27.17" y2="13.16"/><line class="cls-14" x1="5.97" y1="12.5" x2="27.17" y2="12.5"/><line class="cls-15" x1="5.97" y1="11.83" x2="27.17" y2="11.83"/><line class="cls-16" x1="5.97" y1="11.17" x2="27.17" y2="11.17"/><line class="cls-17" x1="5.97" y1="10.51" x2="27.17" y2="10.51"/><line class="cls-18" x1="5.97" y1="9.84" x2="27.16" y2="9.84"/><line class="cls-19" x1="5.97" y1="9.18" x2="27.16" y2="9.18"/><line class="cls-20" x1="5.97" y1="8.52" x2="27.16" y2="8.52"/><line class="cls-21" x1="5.97" y1="7.85" x2="27.16" y2="7.85"/><line class="cls-22" x1="5.97" y1="7.19" x2="27.16" y2="7.19"/><line class="cls-23" x1="5.97" y1="6.52" x2="27.16" y2="6.52"/><line class="cls-24" x1="5.97" y1="5.86" x2="27.16" y2="5.86"/><line class="cls-25" x1="5.96" y1="5.2" x2="27.16" y2="5.2"/><line class="cls-26" x1="5.96" y1="4.53" x2="27.16" y2="4.53"/><line class="cls-27" x1="5.96" y1="3.87" x2="27.16" y2="3.87"/><line class="cls-28" x1="5.96" y1="3.21" x2="27.16" y2="3.21"/><path d="M7114.24,7200.17s.07-.88.11-.89.14.05.22,0l.45-.14.07-.11c0-.32-.17-.59-.18-.9a.24.24,0,0,0,.19-.11v-.14a.47.47,0,0,1-.19-.34.34.34,0,0,0-.22-.07,2.41,2.41,0,0,0-.48-.3l0-.11.11,0c.12,0,.18-.14.26-.22s-.1-.1-.07-.18l.11-.08h.15l.07-.07v-.11c0-.07-.14,0-.18-.11s-.28,0-.41-.08v-.11a.42.42,0,0,1,.15,0l.07-.07c-.08,0-.12-.13-.18-.19a1.77,1.77,0,0,1-.19-.33.31.31,0,0,0,0-.19l-.07-.07a.45.45,0,0,1-.23,0,.65.65,0,0,1,.15-.18c0-.12-.13-.11-.18-.19a3.42,3.42,0,0,0-.45,0,.61.61,0,0,1-.11-.23.23.23,0,0,0,0-.18.67.67,0,0,0-.22-.19c-.06,0-.13,0-.18,0a.22.22,0,0,1-.19-.15c.06-.07.15-.12.19-.22v-.15c-.06-.12-.14-.24-.19-.37l-.15-.15c-.08,0-.13-.06-.18-.11s-.27,0-.41,0a2.37,2.37,0,0,0-.37-.48.66.66,0,0,1-.22-.15h-.56l-.07-.11c-.07,0-.11-.08-.19-.07a.42.42,0,0,0-.11-.15.45.45,0,0,0,0-.23h-.19l-.15.08-.11,0a.25.25,0,0,0-.15-.15h-.22c-.11,0-.14.14-.19.22l-.14.11a.8.8,0,0,1-.23-.18,1,1,0,0,0-.26-.15.23.23,0,0,1-.14,0c-.12,0-.23,0-.34,0s0,.17,0,.26a1.23,1.23,0,0,1,.12.26l.07.07a1,1,0,0,1-.08.11.81.81,0,0,0-.14.12c-.2,0-.4.09-.6.11a.83.83,0,0,1-.26-.19,1.1,1.1,0,0,0-.44-.11l-.19.07a1.43,1.43,0,0,0-.41,0c-.1.05-.23.06-.33.11l-.34.33a2.14,2.14,0,0,1-.44.08c-.13,0-.28,0-.41.07a.46.46,0,0,1-.26,0,1.91,1.91,0,0,0-.52.19l-.22.22,0,.11a.4.4,0,0,1-.22,0c-.09,0-.14.11-.22.15a1,1,0,0,0-.08.11.28.28,0,0,1,0,.18c.13.22.25.43.4.64v.11l-.11.07c-.13,0-.27-.06-.41,0s-.15.13-.25.11,0,.09,0,.12l-.07.11a.31.31,0,0,0-.19,0c-.08.06-.18,0-.26.07s-.14.21-.22.3a.24.24,0,0,1-.08.22.3.3,0,0,0,.12.15c.06,0,.1.05.14.08l-.07.11c-.08,0-.15,0-.22,0a2,2,0,0,1-.34.26.41.41,0,0,1-.11.26v.11c0,.06.05.14.11.19l.22.07a2.43,2.43,0,0,1,.6,0,1,1,0,0,1-.08.11c-.12.05-.25.09-.37.15s-.28.16-.41.26a2.75,2.75,0,0,0-.22.26c0,.07-.07.15-.11.22v.15c0,.09.11.17.15.26a1.34,1.34,0,0,1-.38.37c-.06.08,0,.18-.07.26a2.41,2.41,0,0,1,.07.37l.12.08h.18l.11.07c-.06.13,0,.28-.11.41s-.1.24-.15.37.14.46.15.71a1.51,1.51,0,0,1,.15.37.46.46,0,0,0,0,.26c.09.07.15.18.26.22h.11a.88.88,0,0,0,.12.15c.06,0,.1,0,.14-.07s.21,0,.3,0,.18,0,.26.07v.11c.11.19.34.23.48.38h.74v-.11a1.16,1.16,0,0,1,.23-.26s0-.09,0-.11a.34.34,0,0,0-.22,0c-.11,0-.16-.12-.26-.11a1.29,1.29,0,0,0-.22-.3c-.11.09-.16.21-.26.3l-.12,0-.11-.08a1.34,1.34,0,0,1-.07-.18,2.7,2.7,0,0,1,.07-.41c.13-.12.31-.11.45-.19a.23.23,0,0,0,.15.15c.1,0,.15.12.26.11h.11a.76.76,0,0,1,0-.11c.12-.12.33-.11.44-.26s.19-.09.3-.11.17-.05.26,0a.19.19,0,0,0,.07-.12l.11-.07c.24,0,.48,0,.71,0s.42,0,.64,0l0,0h0v0s0,0-.05.05l-.05,0h-.12v0s0,0-.07,0,0,0-.05,0,0,0-.06,0a1.09,1.09,0,0,1-.18,0s0,0,0,0,0,.17-.07.23a.26.26,0,0,0-.19,0,2.59,2.59,0,0,0-.37.11c-.07.09-.19.13-.26.22s0,.06,0,.08a.36.36,0,0,0,0,.11,1.46,1.46,0,0,0-.33.22v.07a.25.25,0,0,0,.14.11c.09,0,.17.06.26,0s.23.21.37.26a.15.15,0,0,0,.12-.11l0-.07.11-.08h.15a.23.23,0,0,0,.15-.07.57.57,0,0,1,0-.26,1.18,1.18,0,0,1,.19-.11l.11,0a1.51,1.51,0,0,1,.11.22c.09,0,.08.07.11.11s.17.06.26,0a1.23,1.23,0,0,0,.08-.37l.11-.08a10.53,10.53,0,0,1,.52.93,2.64,2.64,0,0,0,.15.45,11.14,11.14,0,0,1,0,1.15,1,1,0,0,0-.08.11c-.14,0-.25-.13-.41-.11l0,.07a.45.45,0,0,1-.23,0c-.08.11-.25,0-.33.15s-.32-.05-.48,0a.21.21,0,0,0-.15.07.94.94,0,0,0-.37,0l-.08.12a14.07,14.07,0,0,1-1.59,0l-.11.07a11.92,11.92,0,0,0-1.34,0l-.11-.08-.11.08a1,1,0,0,1-.34,0,.29.29,0,0,0-.18,0,7.85,7.85,0,0,1-1.19,0c-.11,0-.2.05-.3.07.39.11.8,0,1.19.11a.78.78,0,0,0,.37,0,6.07,6.07,0,0,0,1.41.07l.22.08c.11,0,.2-.06.3,0l.11.07c.65.05,1.29.13,1.93.19a1.37,1.37,0,0,0,.45,0,1.7,1.7,0,0,1,.55,0c.77-.09,1.54,0,2.31-.14a.33.33,0,0,0,.14,0l.23-.08a2,2,0,0,1,.55,0,1.18,1.18,0,0,0,.19-.11.34.34,0,0,1,.22,0,.75.75,0,0,0,.3,0,.94.94,0,0,1,.37,0,7.83,7.83,0,0,1,1.08-.07,3.66,3.66,0,0,0,.81,0l.19-.07c.79,0,1.58.06,2.38,0a4.8,4.8,0,0,0,1.07-.11,5.19,5.19,0,0,1-1.11-.08,12.8,12.8,0,0,1-1.52,0c-.09,0-.19,0-.26,0-.66-.09-1.32,0-2-.08-.16-.06-.32-.06-.48-.11l-.08,0c-.2-.09-.43,0-.63-.08a1.53,1.53,0,0,0-.52,0,.43.43,0,0,1-.22,0c-.11,0-.23,0-.33,0a1.36,1.36,0,0,0-.49,0l-.11-.08c-.05,0-.11,0-.15,0s-.18-.1-.29-.07,0-.24-.08-.34a3.36,3.36,0,0,1,.15-.7c.2-.29.38-.59.6-.86s.26-.47.41-.7a.2.2,0,0,1,.18,0,.85.85,0,0,0,.26.41h.63a.66.66,0,0,1,.19.15h.26l.07-.08a1,1,0,0,0-.07-.3l-.08-.07v-.11c.1,0,.09-.15.19-.15a5.81,5.81,0,0,1,.56.45.33.33,0,0,1,0,.15l.08.07a.37.37,0,0,0,.15,0,.34.34,0,0,0,.26-.19,2.54,2.54,0,0,0,0-.55l.23-.15h.48a.52.52,0,0,1,.18.15h.12l.11-.12-.08-.14a.48.48,0,0,1-.26,0,.43.43,0,0,1,.12-.22.46.46,0,0,1,.26,0c.08,0,.13.08.22.07a1.18,1.18,0,0,1,.11.19l.18.19a.67.67,0,0,1-.07.18.42.42,0,0,1-.15,0,.19.19,0,0,0-.07.11l0,0a.41.41,0,0,0,.19,0,.28.28,0,0,1,.15,0,.46.46,0,0,1,0,.26l-.11,0a.62.62,0,0,0-.3,0,1.51,1.51,0,0,1-.52,0,3.94,3.94,0,0,1-.55.26c-.07.12-.22.16-.27.3v.07a2,2,0,0,0,.6-.07c.06,0,.14-.05.18-.11a1.4,1.4,0,0,1,.34-.08.46.46,0,0,0,.22-.11.33.33,0,0,0,0-.14l.11-.08a.42.42,0,0,1,.15,0c0,.09-.06.17,0,.26s.1,0,.15,0a.6.6,0,0,0,.33-.18v-.07l-.07,0c0-.12.09-.25.15-.37l.11,0c.16.06.17.24.22.37l.15.08a.27.27,0,0,0,.19,0c.13-.13.28-.24.41-.37s0-.16,0-.22l.07-.11v-.12a.72.72,0,0,0-.11-.15c-.1-.06-.22,0-.33,0a2.22,2.22,0,0,1-.63,0l-.11-.07,0-.11a.41.41,0,0,1,.19,0c.06-.05.08-.13.15-.18s0-.11,0-.15h-.26a.84.84,0,0,1-.41.11l-.07,0a.49.49,0,0,1,0-.11c.16-.1.36-.14.52-.26a2.18,2.18,0,0,1,.44-.11c.17.08.28.25.45.33s.23.13.33,0,0-.3,0-.44a.6.6,0,0,1-.11-.34c-.31.06-.63,0-.93.07a.55.55,0,0,1-.19.15h-.22l-.07.11a2.92,2.92,0,0,1-.49.19c-.06,0-.13-.07-.15-.15a.18.18,0,0,0-.11,0,.72.72,0,0,0-.11-.15h-.22c-.08-.08-.21-.1-.26-.22s.12-.1.11-.18l-.29-.3h-.27l-.22-.08H7112c-.06.05-.16,0-.22.08a8.36,8.36,0,0,0-1-.23l-.08-.11.08-.15c.08,0,.17,0,.26-.07a2.21,2.21,0,0,0,.37,0c.12,0,.21-.13.33-.15s.18,0,.26,0,.21,0,.3.08.11.18.18.26a.78.78,0,0,0,.37,0c.11.05.19.14.3.15a.92.92,0,0,0,.22.26h.3a.7.7,0,0,0,.15.19h.18" transform="translate(-7091.5 -7186.5)"/><path d="M7108.75,7198.92" transform="translate(-7091.5 -7186.5)"/><rect x="7111.12" y="7196.81" width="2.15" height="4.53" transform="translate(-7187.55 7115.46) rotate(-89.93)"/><path d="M7112.2,7199.07" transform="translate(-7091.5 -7186.5)"/><rect x="21.81" y="13.28" width="0.78" height="0.63"/><path d="M7113.7,7200.09" transform="translate(-7091.5 -7186.5)"/><path d="M7107.05,7204.32a9.44,9.44,0,0,1-.07-1.3,1,1,0,0,1-.08-.23l-.07-.07c0-.07-.06-.12,0-.19s-.05-.11-.11-.14-.08-.14-.07-.23a.1.1,0,0,1-.08-.07h-.15a.46.46,0,0,1-.07.07h-.07l0,.08a.39.39,0,0,0-.26.07,3.33,3.33,0,0,0-.63,0l-.19.14h-.29c0-.05-.1,0-.12-.07a8.9,8.9,0,0,1-1.15,0c-.07-.08-.18-.07-.26-.15s-.24-.06-.37,0a.67.67,0,0,1-.18-.07c-.09,0-.05-.14-.15-.11a1.11,1.11,0,0,1-.07-.26.28.28,0,0,1-.08-.11v-.52c.1-.07.13-.19.23-.26l0-.11a1.09,1.09,0,0,1,.3-.23h.07c.07-.09.19-.11.26-.18h.15l.08-.08c.32,0,.64-.11,1-.07l.45-.15a2.32,2.32,0,0,0,.52-.07h.78c.07.09.18.08.29.08s.05.1.08.14.24.09.37.12l.07.07v.08a5.22,5.22,0,0,0,.45.33l.15,0,.07.18a1.18,1.18,0,0,1,.19.11l.18,0a3.57,3.57,0,0,0,.19.45,1,1,0,0,1,.11.15.34.34,0,0,0,0,.22c0,.09-.05.17,0,.26l-.12.11c-.15.59,0,1.19-.15,1.78a.57.57,0,0,1-.11.22c-.09,0-.15.08-.22.12h-.19l-.07.08h-.22v.15a2.09,2.09,0,0,1-.23-.08Z" transform="translate(-7091.5 -7186.5)"/><path d="M7114.89,7199.2c-.05,0-.09.07-.15,0a.78.78,0,0,0,0,.3c.13,0,0,.08,0,.11.2.08.43,0,.63.11,0,.11.08.17.11.26s0,.12-.07.15-.06.12,0,.19-.06.06-.11,0,0,.06,0,.08a.09.09,0,0,0-.11,0c0,.07-.06.12,0,.19s0,.09-.07.07v.34s.05,0,.07,0a.22.22,0,0,0,.08.19v.3c-.1,0,0,.11-.08.11v.26c0,.05-.08.09-.11.15s-.1,0-.11.07h-.26s-.09.05-.08.11-.23,0-.33.11-.41.11-.63.08l-.08-.08c-.16,0-.29.17-.48.15l-.07.07a.61.61,0,0,0-.26.08h-.3a1.14,1.14,0,0,0-.11-.11s-.05-.07,0-.12l-.07-.07c0-.08-.1-.11-.08-.19h-.29a.63.63,0,0,0-.26-.07,2.27,2.27,0,0,0-.63-.08,1,1,0,0,1-.34,0c0-.08-.14-.06-.15-.15s-.11.06-.18,0-.18-.07-.26-.11a7.83,7.83,0,0,0-.45-.67l0-.15c-.06-.06-.13-.12-.19-.19l-.26-.37c0-.63,0-1.26,0-1.89a2.63,2.63,0,0,1-.08-.74c0-.15-.05-.3-.07-.45l-.15-.3a.73.73,0,0,0-.07-.29v-.49l.56-.55c.1,0,.19-.07.29,0a6.26,6.26,0,0,0,1,.11.71.71,0,0,1,.18.08.33.33,0,0,0,.15.11c.12.05.26,0,.37.08a.72.72,0,0,1,.19.11,2.2,2.2,0,0,0,.67.22c.06.07.16.08.22.15.25.11.5.21.74.34l.37.07a2.57,2.57,0,0,1,.41.26v.11c.06,0,.13,0,.18.08h.15c.15.14.38.14.52.29s0,.08,0,.12l.07.07v.26" transform="translate(-7091.5 -7186.5)"/><path d="M7114.76,7199.22" transform="translate(-7091.5 -7186.5)"/><path class="cls-1" d="M7105.05,7200.79c-.06.05,0,.16-.07.22a.41.41,0,0,0-.19,0c-.12,0-.25.06-.37.11s-.19.13-.26.22,0,.06,0,.08a.49.49,0,0,0,0,.11,1.79,1.79,0,0,0-.34.22v.08a.53.53,0,0,0,.15.11c.09,0,.17.05.26,0s.23.2.37.26a.14.14,0,0,0,.11-.12l0-.07.11-.07h.15a.31.31,0,0,0,.15-.08.46.46,0,0,1,0-.26,1.18,1.18,0,0,1,.19-.11l.11,0a2.26,2.26,0,0,1,.11.22c.09,0,.08.07.11.11s.17.06.26,0a1.17,1.17,0,0,0,.08-.37l.11-.07a10.36,10.36,0,0,1,.52.92,2.16,2.16,0,0,0,.15.45,11,11,0,0,1,0,1.15l-.08.11c-.14,0-.26-.13-.41-.11l0,.07a.37.37,0,0,1-.23,0c-.08.11-.25,0-.33.15s-.32-.05-.48,0-.12,0-.15.08a.78.78,0,0,0-.37,0l-.08.11a14.07,14.07,0,0,1-1.59,0l-.11.07a11.92,11.92,0,0,0-1.34,0l-.11-.08-.11.08a.78.78,0,0,1-.34,0,.39.39,0,0,0-.18,0,7.85,7.85,0,0,1-1.19,0,1,1,0,0,0-.3.07c.39.11.8,0,1.19.12a.94.94,0,0,0,.37,0,6.07,6.07,0,0,0,1.41.08l.22.07c.11,0,.2-.06.3,0l.11.08c.65,0,1.29.13,1.93.19.15,0,.3,0,.45,0a1.71,1.71,0,0,1,.55,0c.77-.09,1.54,0,2.31-.15a.23.23,0,0,0,.14,0l.23-.07a1.7,1.7,0,0,1,.55,0,1.18,1.18,0,0,0,.19-.11.41.41,0,0,1,.22,0,.51.51,0,0,0,.3,0,.94.94,0,0,1,.37,0,7.83,7.83,0,0,1,1.08-.07,3.67,3.67,0,0,0,.81,0,.64.64,0,0,1,.19-.08c.79,0,1.58.06,2.37,0a4.83,4.83,0,0,0,1.08-.11,5.19,5.19,0,0,1-1.11-.08,11,11,0,0,1-1.52,0c-.09,0-.19,0-.26,0-.66-.08-1.32,0-2-.08-.16-.06-.33-.06-.48-.11l-.08,0c-.2-.09-.43,0-.63-.08a1.53,1.53,0,0,0-.52,0,.34.34,0,0,1-.22,0c-.11,0-.23-.05-.34,0a1.29,1.29,0,0,0-.48,0l-.11-.07s-.11,0-.15,0-.18-.1-.29-.07,0-.23-.08-.34a3.36,3.36,0,0,1,.15-.7,7.23,7.23,0,0,1,.6-.85c.16-.22.26-.48.41-.71a.23.23,0,0,1,.18,0,.85.85,0,0,0,.26.41h.63a.9.9,0,0,1,.19.15h.26l.07-.08a1,1,0,0,0-.07-.29l-.08-.08v-.11c.09,0,.09-.15.19-.15.18.16.39.27.56.45,0,.05,0,.09,0,.15l.08.07a.23.23,0,0,0,.14,0c.11,0,.23-.07.26-.18a2.12,2.12,0,0,0,0-.56l.23-.15h.48a.65.65,0,0,1,.18.15h.12a.57.57,0,0,1,.11-.11l-.08-.15a.46.46,0,0,1-.26,0,.57.57,0,0,1,.11-.22.49.49,0,0,1,.26,0c.09,0,.14.08.23.08a1.74,1.74,0,0,1,.11.18l.18.19a.56.56,0,0,1-.07.18.28.28,0,0,1-.15,0,.19.19,0,0,0-.07.11l0,0a.31.31,0,0,0,.19,0,.42.42,0,0,1,.15,0,.46.46,0,0,1,0,.26l-.11,0a.52.52,0,0,0-.3,0,1.83,1.83,0,0,1-.52,0,3.53,3.53,0,0,1-.56.25c-.06.13-.21.17-.26.3v.08a2.41,2.41,0,0,0,.6-.08c.06,0,.14-.05.18-.11a1.37,1.37,0,0,1,.34-.07.46.46,0,0,0,.22-.11.42.42,0,0,0,0-.15l.11-.08a.42.42,0,0,1,.15,0c0,.09-.06.17,0,.26s.1,0,.15,0a.69.69,0,0,0,.33-.19V7202l-.07,0c.05-.12.09-.25.15-.37l.11,0c.16.06.17.25.22.38l.15.07a.27.27,0,0,0,.19,0c.13-.12.28-.24.4-.37s0-.16,0-.22l.07-.11v-.11a.42.42,0,0,0-.11-.15c-.1-.07-.22,0-.33,0a2.67,2.67,0,0,1-.63,0l-.12-.08a.49.49,0,0,0,0-.11.41.41,0,0,1,.19,0c.06-.05.08-.13.15-.18s0-.11,0-.15h-.26a.84.84,0,0,1-.41.11l-.07,0,0-.11a4.2,4.2,0,0,0,.52-.26,3.69,3.69,0,0,1,.45-.11c.17.08.28.25.44.34s.23.12.34,0,0-.29,0-.44a.6.6,0,0,1-.11-.34c-.31.07-.63,0-.93.08a.9.9,0,0,1-.19.15h-.22l-.07.11a4.09,4.09,0,0,1-.49.18.25.25,0,0,1-.15-.15.13.13,0,0,0-.11,0,.42.42,0,0,0-.11-.15h-.22c-.08-.08-.21-.1-.26-.23s.11-.1.11-.18l-.3-.3h-.26l-.22-.07H7111c-.07,0-.16,0-.22.07a8,8,0,0,0-1-.22.75.75,0,0,0-.07-.12.91.91,0,0,0,.07-.14c.09,0,.18,0,.27-.08a2.21,2.21,0,0,0,.37,0c.12,0,.21-.13.33-.15s.18,0,.26,0,.21,0,.3.08.11.18.18.26a.94.94,0,0,0,.37,0c.1,0,.18.13.3.15a1.32,1.32,0,0,0,.22.26h.3a.65.65,0,0,0,.15.18h.18l.19-.18.11,0c.08,0,.14.05.22,0s.3-.09.45-.15l.07-.11c0-.32-.17-.58-.18-.89a.26.26,0,0,0,.18-.11v-.15a.5.5,0,0,1-.18-.34.41.41,0,0,0-.22-.07,2.22,2.22,0,0,0-.49-.3.49.49,0,0,0,0-.11l.11,0a1,1,0,0,0,.26-.22c0-.08-.1-.11-.07-.19l.11-.07h.15l.07-.08v-.11c0-.06-.14,0-.18-.11s-.28,0-.41-.08V7196a.4.4,0,0,1,.15,0l.07-.08c-.08,0-.12-.12-.18-.18a1.63,1.63,0,0,1-.19-.34.3.3,0,0,0,0-.18l-.07-.08a.37.37,0,0,1-.23,0,.65.65,0,0,1,.15-.18c0-.12-.13-.11-.18-.19a3.42,3.42,0,0,0-.45,0,.65.65,0,0,1-.11-.22.26.26,0,0,0,0-.19c-.07-.06-.12-.15-.22-.19s-.13,0-.18,0a.2.2,0,0,1-.19-.15c.06-.07.15-.12.19-.22v-.15a2.58,2.58,0,0,1-.19-.37l-.15-.15c-.08,0-.13-.06-.18-.11s-.27.05-.41,0a2.18,2.18,0,0,0-.37-.49.83.83,0,0,1-.22-.14h-.56a.41.41,0,0,1-.07-.11c-.07,0-.11-.08-.19-.07a.53.53,0,0,0-.11-.15.43.43,0,0,0,0-.22h-.19l-.15.07-.11,0a.25.25,0,0,0-.15-.15h-.22c-.11,0-.14.14-.19.23a.49.49,0,0,0-.14.11,1.06,1.06,0,0,1-.23-.19,2.2,2.2,0,0,0-.26-.15.4.4,0,0,1-.15,0c-.11,0-.22,0-.33,0s0,.17,0,.26a1.45,1.45,0,0,1,.11.26l.08.08a1,1,0,0,0-.08.11.49.49,0,0,0-.14.11c-.2,0-.4.09-.6.11a.7.7,0,0,1-.26-.19,1.36,1.36,0,0,0-.44-.11.64.64,0,0,1-.19.08,1.42,1.42,0,0,0-.41,0c-.11.05-.23.06-.33.11s-.22.23-.34.34a2.13,2.13,0,0,1-.44.07c-.13.05-.28,0-.41.07a.46.46,0,0,1-.26,0,1.61,1.61,0,0,0-.52.18l-.22.22,0,.11a.34.34,0,0,1-.22,0c-.09,0-.14.12-.22.15l-.08.11a.31.31,0,0,1,0,.19c.13.21.25.43.4.63v.11l-.11.07c-.14,0-.27-.06-.41,0s-.15.12-.26.11,0,.08,0,.11l-.07.11a.41.41,0,0,0-.19,0c-.08.06-.18,0-.26.08s-.14.21-.22.29a.24.24,0,0,1-.08.22.35.35,0,0,0,.11.15.24.24,0,0,1,.15.08l-.07.11c-.08,0-.15,0-.22,0s-.22.18-.34.26a.46.46,0,0,1-.11.26v.11c0,.06,0,.13.11.18l.22.08a2,2,0,0,1,.6,0l-.08.12-.37.14-.41.26a2.75,2.75,0,0,0-.22.26c0,.08-.07.15-.11.22v.15a2.2,2.2,0,0,0,.15.26,1.34,1.34,0,0,1-.38.37c-.06.08,0,.19-.07.26s.08.24.07.37l.11.08h.19l.11.07c-.06.13,0,.29-.11.41a2.87,2.87,0,0,0-.15.37c0,.25.14.47.15.71a2.39,2.39,0,0,1,.15.37.46.46,0,0,0,0,.26c.09.07.15.18.26.22h.11a1,1,0,0,0,.11.15c.07,0,.11,0,.15-.07s.21,0,.3,0,.18,0,.26.08v.11c.11.19.34.22.48.37h.74v-.11a1.16,1.16,0,0,1,.23-.26s0-.09,0-.11-.16,0-.22,0-.16-.12-.26-.12a1.06,1.06,0,0,0-.22-.29,2.35,2.35,0,0,0-.26.29l-.12,0-.11-.07a1.46,1.46,0,0,1-.07-.19,2.93,2.93,0,0,1,.07-.41c.13-.11.31-.11.45-.18s.07.13.15.14.15.13.26.12h.11l0-.11c.12-.13.33-.12.44-.26s.19-.09.3-.11.17-.06.26,0a.19.19,0,0,0,.07-.11l.11-.08c.24,0,.47,0,.71,0s.42,0,.64,0c0,0,0,0,0,0s0,0,0,0v0l0,.05-.05,0h-.12v0s0,0-.07,0,0,0-.05,0,0,0-.06,0a.55.55,0,0,1-.18,0A0,0,0,0,1,7105.05,7200.79Z" transform="translate(-7091.5 -7186.5)"/><path d="M7109.23,7201.05c.33,0,.07-.14.07-.11l-.18,0c-.12.08.05,0,0,.09C7109.22,7201.05,7108.78,7201.05,7109.23,7201.05Z" transform="translate(-7091.5 -7186.5)"/><path d="M7101.3,7199.18a2.49,2.49,0,0,0-.29-.11c-.06,0-.1.06-.11.15l.11,0a1,1,0,0,1,.11.15.23.23,0,0,0,.18,0,.35.35,0,0,1,.12-.07l0-.11Z" transform="translate(-7091.5 -7186.5)"/><path d="M7106,7199.49a.58.58,0,0,1-.19.15v.11c.08.06.08.16.15.22a.31.31,0,0,0,.19,0l0-.11c-.07,0,0-.12,0-.18Z" transform="translate(-7091.5 -7186.5)"/><path d="M7111.33,7199.57l.11,0a1.39,1.39,0,0,0,.15-.19.43.43,0,0,0-.41,0v.12Z" transform="translate(-7091.5 -7186.5)"/><path d="M7107.65,7201.42l-.08.11a1.3,1.3,0,0,1-.11.48v.23a1,1,0,0,1,.08.11c.16-.11.25-.29.4-.41a3.09,3.09,0,0,0,.26-.37c0-.1.1-.17.12-.26a.44.44,0,0,0-.19-.19.57.57,0,0,0-.26,0C7107.78,7201.23,7107.74,7201.35,7107.65,7201.42Z" transform="translate(-7091.5 -7186.5)"/><path d="M7106.61,7201a1,1,0,0,1-.19-.33c0-.19-.07-.05-.11-.07a.41.41,0,0,1-.11.07c-.05.08-.11-.06-.07.11-.1-.15-.13.14.07.11h.08c.06.05.07.13.11.19v.18l.07.23a1.39,1.39,0,0,1,.22.37v.11a.53.53,0,0,0,.15.11,1.42,1.42,0,0,0,.08-.18c-.06,0-.06-.1-.08-.15v-.34c0-.08,0-.18-.07-.26Z" transform="translate(-7091.5 -7186.5)"/><path d="M7110.18,7194.67a.57.57,0,0,0-.11.22,3.51,3.51,0,0,0,.63.19.2.2,0,0,0,.19-.08.36.36,0,0,1,0-.11c-.12-.1-.29-.11-.41-.22Z" transform="translate(-7091.5 -7186.5)"/><path d="M7103.87,7198.19a2.21,2.21,0,0,1-.37,0,.19.19,0,0,0-.19.15,1.81,1.81,0,0,0,.33.29h.15a2,2,0,0,0,.34.12c.1-.07.25,0,.33-.12a.76.76,0,0,1,0-.11,1.74,1.74,0,0,0-.11-.18,1.5,1.5,0,0,0-.34-.11Z" transform="translate(-7091.5 -7186.5)"/><path d="M7104.79,7198.93s-.07-.1-.11-.15l-.11-.07-.18.07a.88.88,0,0,0-.12.15c0,.1.14.16.19.26a.21.21,0,0,0,.18.07.25.25,0,0,1,.15.15.37.37,0,0,1,.15,0l.08-.07v-.12l-.08-.07C7105,7199.07,7104.87,7199,7104.79,7198.93Z" transform="translate(-7091.5 -7186.5)"/><path d="M7103.61,7197.85l-.08-.11a.28.28,0,0,0-.15,0v.11a.23.23,0,0,0,.15.07A1,1,0,0,0,7103.61,7197.85Z" transform="translate(-7091.5 -7186.5)"/></g></svg>