<?xml version="1.0" encoding="utf-8"?>
<!-- Generator: Adobe Illustrator 21.1.0, SVG Export Plug-In . SVG Version: 6.00 Build 0)  -->
<svg version="1.1" id="Layer_1" xmlns="http://www.w3.org/2000/svg" xmlns:xlink="http://www.w3.org/1999/xlink" x="0px" y="0px"
	 viewBox="0 0 1916.8 545" style="enable-background:new 0 0 1916.8 545;" xml:space="preserve">
<style type="text/css">
	.st0{fill:#FFFFFF;}
	.st1{fill:url(#SVGID_1_);}
	.st2{opacity:0.22;fill:url(#SVGID_2_);enable-background:new    ;}
</style>
<path class="st0" d="M1916.8,545.8V490c-27.9,0.9-63,3.2-92.4,5.4c-35.2,2.6-70.3,7.3-104.9,14.3c-368.3,74-473.8,15.7-634.1-29.6
	c-166.7-47.2-483-173.6-664.7-220.8S0,211,0,211v334.7H1916.8z"/>
<radialGradient id="SVGID_1_" cx="958.4169" cy="274.5" r="705.7272" gradientTransform="matrix(0.9984 0 0 -0.9984 1.5805 546.5474)" gradientUnits="userSpaceOnUse">
	<stop  offset="0" style="stop-color:#3B0E58"/>
	<stop  offset="0.2519" style="stop-color:#360D52"/>
	<stop  offset="0.5956" style="stop-color:#2A0B40"/>
	<stop  offset="0.9908" style="stop-color:#150724"/>
	<stop  offset="1" style="stop-color:#140723"/>
</radialGradient>
<path class="st1" d="M1142.2,354.1C901,286.1,443.4,103.7,180.4,35.7C122.7,20.9,61.1,9.2,0,0v210.9c0,0,239,1,420.7,48.2
	S918.8,432.8,1085.4,480c160.2,45.3,265.8,103.7,634.1,29.7c34.6-7,69.7-11.7,104.9-14.3c29.5-2.1,64.6-4.4,92.4-5.4v-67.5
	C1496.8,487.7,1351.9,413.3,1142.2,354.1z"/>
<linearGradient id="SVGID_2_" gradientUnits="userSpaceOnUse" x1="0" y1="492.5" x2="1916.8337" y2="492.5" gradientTransform="matrix(1 0 0 1 0 -220)">
	<stop  offset="0" style="stop-color:#5429ED"/>
	<stop  offset="1" style="stop-color:#A93A8B"/>
</linearGradient>
<path class="st2" d="M1142.2,354.1C901,286.1,443.4,103.7,180.4,35.7C122.7,20.9,61.1,9.2,0,0v210.9c0,0,239,1,420.7,48.2
	S918.8,432.8,1085.4,480c160.2,45.3,265.8,103.7,634.1,29.7c34.6-7,69.7-11.7,104.9-14.3c29.5-2.1,64.6-4.4,92.4-5.4v-67.5
	C1496.8,487.7,1351.9,413.3,1142.2,354.1z"/>
</svg>
