<?xml version="1.0" encoding="utf-8"?>
<!-- Generator: Adobe Illustrator 16.0.0, SVG Export Plug-In . SVG Version: 6.00 Build 0)  -->
<!DOCTYPE svg PUBLIC "-//W3C//DTD SVG 1.1//EN" "http://www.w3.org/Graphics/SVG/1.1/DTD/svg11.dtd">
<svg version="1.1" id="Layer_1" xmlns="http://www.w3.org/2000/svg" xmlns:xlink="http://www.w3.org/1999/xlink" x="0px" y="0px"
	 width="130.779px" height="30px" viewBox="0 0 130.779 30" enable-background="new 0 0 130.779 30" xml:space="preserve">
<g>
	<path fill="#FFFFFF" d="M72.367,10.414c0.02,0,0.02,5.713,0,5.713c0,2.893,1.408,5.225,4.93,5.532c0,0-0.002,2.294,0,2.294
		c-4.583-0.01-7.23-3.336-7.23-7.801v-5.739h-1.779V8.212h1.779V4.356h2.301v3.855h4.685v2.202H72.367z"/>
	<path fill="#FFFFFF" d="M56.127,10.599V8.276c5.444-1.465,9.232,1.172,10.678,5.061l3.771,10.212h-2.472l-1.562-4.131
		c-1.543,3.031-4.682,4.85-7.876,4.754c-1.683-0.048-3.281-0.637-4.356-2.104c-0.761-1.104-0.979-2.613-0.653-3.993
		c0.517-1.626,2.12-2.932,3.776-3.194c1.669-0.217,7.477-0.099,7.459-0.118C63.958,12.367,61.643,8.313,56.127,10.599z
		 M56.054,20.544c1.016,1.524,2.766,1.661,4.356,1.313c2.337-0.559,4.568-2.635,5.313-5.048c-2.268,0.107-5.572-0.081-7.563,0.178
		C55.074,17.386,55.694,19.902,56.054,20.544z"/>
	<path fill="#FFFFFF" d="M96.816,10.414c0.018,0,0.018,5.713,0,5.713c0,2.893,1.408,5.225,4.929,5.532c0,0-0.002,2.294,0,2.294
		c-4.583-0.01-7.23-3.336-7.23-7.801v-5.739h-1.78V8.212h1.78V4.356h2.302v3.855h4.684v2.202H96.816z"/>
	<path fill="#FFFFFF" d="M115.752,15.881c0,3.281-2.661,5.941-5.941,5.941c-3.282,0-5.941-2.66-5.941-5.941
		c0-3.282,2.659-5.942,5.941-5.942C113.091,9.939,115.752,12.6,115.752,15.881z M109.811,7.635c-4.555,0-8.247,3.692-8.247,8.247
		c0,4.554,3.692,8.247,8.247,8.247s8.246-3.692,8.246-8.247C118.057,11.327,114.365,7.635,109.811,7.635z"/>
	<path fill="#FFFFFF" d="M80.575,10.599V8.276c5.444-1.465,8.939,1.031,10.572,4.954l3.877,10.319h-2.472l-1.46-4.131
		c-1.542,3.031-4.782,4.85-7.978,4.754c-1.684-0.048-3.281-0.637-4.355-2.104c-0.762-1.104-0.979-2.613-0.652-3.993
		c0.516-1.626,2.119-2.932,3.774-3.194c1.669-0.217,7.478-0.099,7.458-0.118C89.086,12.749,86.092,8.313,80.575,10.599z
		 M80.502,20.544c1.018,1.524,2.766,1.661,4.355,1.313c2.338-0.559,4.569-2.635,5.314-5.048c-2.27,0.107-5.572-0.081-7.564,0.178
		C79.521,17.386,80.143,19.902,80.502,20.544z"/>
	<path fill="#FFFFFF" d="M50.332,0v10.171c-1.5-1.561-3.604-2.536-5.94-2.536c-4.555,0-8.247,3.692-8.247,8.247
		c0,4.554,3.691,8.247,8.247,8.247c4.553,0,8.246-3.692,8.246-8.247V0H50.332z M44.392,21.822c-3.281,0-5.941-2.66-5.941-5.941
		c0-3.282,2.66-5.942,5.941-5.942c3.281,0,5.94,2.66,5.94,5.942C50.332,19.162,47.672,21.822,44.392,21.822z"/>
	<path fill="#FFFFFF" d="M12.759,1.629h-0.047c0,0,0,10.027,0,10.303c-0.037-0.049-0.074-0.099-0.074-0.099
		c-1.298-1.7-1.648-2.021-2.317-2.585C9.427,8.496,8.429,8.097,7.434,8.097c-1.1,0-2.28,0.608-2.912,1.174L4.449,9.336
		c-0.503,0.45-0.978,0.873-2.217,2.497c-0.571,0.749-2.041,3.106-2.207,3.373L0,15.247l1.958,1.216l0.025-0.039
		c0.434-0.697,1.653-2.631,2.081-3.191c1.108-1.453,1.484-1.787,1.919-2.176l0.076-0.067c0.31-0.277,0.95-0.586,1.374-0.586
		c0.562,0,1.072,0.331,1.4,0.609c0.513,0.432,0.771,0.649,1.971,2.221c0.643,0.843,1.543,2.303,1.907,2.902
		c0,0.027,0,13.865,0,13.865h0.822c7.822,0,14.186-6.363,14.186-14.185S21.356,1.629,13.534,1.629H12.759z M15.017,4.033
		c4.853,0.608,8.879,4.223,10.028,9.014c0.109,0.461,0.166,1.002,0.166,1.539c0,0.423-0.035,0.842-0.105,1.216
		c-0.208,1.108-0.912,2.414-1.201,2.84c-1.827,2.686-2.989,2.62-3.484,2.592l-0.126-0.005c-0.561,0-1.071-0.333-1.4-0.609
		c-0.514-0.433-0.772-0.649-1.97-2.222c-0.645-0.844-1.544-2.303-1.908-2.902C15.017,15.468,15.017,4.142,15.017,4.033z
		 M15.017,19.697c0.037,0.049,0.074,0.1,0.074,0.1c1.299,1.699,1.649,2.021,2.317,2.584c0.893,0.754,1.891,1.152,2.886,1.152
		c1.1,0,2.281-0.608,2.913-1.174l0.073-0.066c0.137-0.123,0.28-0.251,0.437-0.404c-1.875,3.132-5.086,5.254-8.701,5.707
		C15.017,27.486,15.017,19.969,15.017,19.697z"/>
	<path fill="#FFFFFF" d="M119.418,23.549V13.312c0-3.138,2.542-5.681,5.68-5.681s5.682,2.543,5.682,5.681v10.237h-2.302V13.312
		c0-1.863-1.517-3.379-3.38-3.379s-3.379,1.516-3.379,3.379v10.237H119.418z"/>
</g>
</svg>
