<?xml version="1.0" encoding="utf-8"?>
<!-- Generator: Adobe Illustrator 16.0.0, SVG Export Plug-In . SVG Version: 6.00 Build 0)  -->
<!DOCTYPE svg PUBLIC "-//W3C//DTD SVG 1.1//EN" "http://www.w3.org/Graphics/SVG/1.1/DTD/svg11.dtd">
<svg version="1.1" id="Layer_1" xmlns="http://www.w3.org/2000/svg" xmlns:xlink="http://www.w3.org/1999/xlink" x="0px" y="0px"
	 width="959.994px" height="190.965px" viewBox="0 0 959.994 190.965" enableBackground="new 0 0 959.994 190.965"
	 xml:space="preserve">
<rect x="-0.062" y="-0.003" fill="#010101" width="960" height="190.968"/>
<g>
	<g>
		<g>
			<rect fill="#A2227B" width="116.48" height="190.965"/>
			<rect x="120.497" fill="#A2227B" width="116.485" height="190.965"/>
			<rect x="241.001" fill="#A2227B" width="116.488" height="190.965"/>
			<rect x="361.5" fill="#A2227B" width="116.482" height="190.965"/>
			<rect x="482.002" fill="#A2227B" width="116.487" height="190.965"/>
			<rect x="602.509" fill="#A2227B" width="116.482" height="190.965"/>
			<rect x="723.008" fill="#A2227B" width="116.481" height="190.965"/>
			<rect x="843.519" fill="#A2227B" width="116.476" height="190.965"/>
		</g>
		<g>
			<path fill="#EF3C4A" d="M116.48,190.965V25.039C83.238,21.409,46.056,19.178,0,17.811v173.154H116.48z"/>
			<path fill="#EF3C4A" d="M236.982,190.965V47.396c-39.5-10.269-75.046-17.212-116.485-21.917v165.487H236.982z"/>
			<path fill="#EF3C4A" d="M357.49,190.965V83.035c-45.924-14.384-82.757-25.694-116.488-34.587v142.517H357.49z"/>
			<path fill="#EF3C4A" d="M477.982,190.965V120.81c-15.175-4.776-30.973-9.76-47.473-14.9
				c-25.254-7.872-48.069-15.058-69.009-21.627v106.683H477.982z"/>
			<path fill="#EF3C4A" d="M598.489,190.965v-34.643c-35.158-8.896-73.341-20.695-116.487-34.254v68.896H598.489z"/>
			<path fill="#EF3C4A" d="M718.991,190.965v-17.194c-36.839,0.12-74.542-6.03-116.482-16.444v33.639H718.991z"/>
			<path fill="#EF3C4A" d="M839.489,190.965v-32.512c-35.992,5.621-56.193,11.115-96.644,14.342
				c-6.597,0.523-13.206,0.832-19.838,0.936v17.234H839.489z"/>
			<path fill="#EF3C4A" d="M959.994,190.965v-44.014c-4.66,0.068-9.499,0.254-14.517,0.578
				c-47.309,3.077-78.141,6.71-101.959,10.303v33.133H959.994z"/>
		</g>
	</g>
	<path fill="#FFFFFF" d="M100.013,26.837L86.56,166.646h-5.825l-22.29-82.856H58.04l-22.296,82.856h-5.825L16.458,26.837
		l13.462-2.67l6.427,103.004h0.399l19.48-72.165h4.02l19.489,72.165h0.396l6.43-103.004L100.013,26.837z"/>
	<path fill="#FFFFFF" d="M193.806,109.279h-30.132l14.868-64.139h0.396L193.806,109.279z M197.021,121.621l10.44,45.024
		l13.262-3.704L186.774,26.837h-16.065l-33.943,136.104l13.25,3.704l10.449-45.024H197.021z"/>
	<path fill="#FFFFFF" d="M292.816,39.176h-28.922V26.837h70.698v12.338h-28.32v124.795h-13.456V39.176z"/>
	<path fill="#FFFFFF" d="M457.352,143.416c-7.831,12.945-19.486,22.402-34.753,22.402c-34.944,0-40.176-43.176-40.176-70.305
		c0-27.352,5.232-70.525,40.176-70.525c15.267,0,25.71,9.052,32.745,22.208l-11.447,6.985c-4.222-8.633-11.048-16.238-21.298-16.238
		c-24.504,0-26.11,39.469-26.11,57.569c0,17.879,1.606,57.354,26.11,57.354c10.443,0,18.685-8.842,23.699-17.271L457.352,143.416z"
		/>
	<path fill="#FFFFFF" d="M506.097,26.837h13.462v57.566h41.377V26.837h13.459v137.133h-13.459V96.742h-41.377v67.229h-13.462V26.837
		z"/>
	<path fill="#FFFFFF" d="M660.753,37.944c23.693,0,23.104,31.452,23.104,57.355c0,23.851,0.196,57.568-23.104,57.568
		c-18.887,0-23.104-20.556-23.104-57.568C637.649,75.155,637.048,37.944,660.753,37.944z M660.753,24.988
		c-35.76,0-37.164,47.698-37.164,70.311c0,17.684-1.001,70.519,37.164,70.519c37.763,0,37.155-53.247,37.155-70.519
		C697.908,77.214,698.516,24.988,660.753,24.988z"/>
	<path fill="#FFFFFF" d="M761.872,26.837v99.715c0,13.568,2.61,26.314,19.278,26.314c16.673,0,19.486-12.959,19.486-26.314V26.837
		h13.455v103.827c0,21.385-13.056,35.154-32.941,35.154c-20.285,0-32.739-14.182-32.739-34.543V26.837H761.872z"/>
	<path fill="#FFFFFF" d="M937.111,56.521h-1.627V46.463h-0.083l-3.897,10.058h-1.061l-3.778-10.058h-0.077v10.058h-1.633V44.804
		h2.771l3.289,8.272l3.409-8.272h2.688V56.521z M923.578,46.463h-3.808v10.058h-1.633V46.463h-3.855v-1.659h9.296V46.463z"/>
	<path fill="#FFFFFF" d="M895.32,39.176h-28.913V26.837h70.704v12.338h-28.329v124.795H895.32V39.176z"/>
</g>
<g>
</g>
<g>
</g>
<g>
</g>
<g>
</g>
<g>
</g>
<g>
</g>
</svg>
